<svg width="18" height="12" viewBox="0 0 18 12" fill="none" xmlns="http://www.w3.org/2000/svg">
<path d="M12.4019 2.99131L12.503 2.968L9.14279 5.58149L7.7507 4.18933C6.36355 3.24076 4.88903 2.20101 3.50514 1.16126C2.7536 0.67998 1.81418 0.776291 1.25053 1.44999C0.686892 2.12368 0.686892 3.08618 1.34448 3.75987C2.37782 4.91478 3.43467 6.06976 4.49148 7.22467C5.54834 8.37965 6.60519 9.53463 7.63856 10.6895C8.01431 11.2671 8.57795 11.4595 9.32948 11.4595C9.89313 11.4595 10.4568 11.267 10.8326 10.7858C12.9932 8.47589 15.1538 6.06976 17.2205 3.75987C17.5024 3.37491 17.6902 2.89369 17.5963 2.41248C17.4084 1.06502 15.9993 0.487495 14.872 1.2575C14.5101 1.51244 14.1536 1.76182 13.8012 2.00825C13.3284 2.339 12.863 2.66447 12.4019 2.99131Z" fill="#00B4D8"/>
</svg>
