<svg width="24" height="24" viewBox="0 0 24 24" fill="none" xmlns="http://www.w3.org/2000/svg">
<circle cx="12" cy="12" r="12" fill="#00B4D8"/>
<path d="M7.19995 7.8C7.19995 7.64087 7.26317 7.48825 7.37569 7.37573C7.48821 7.26321 7.64082 7.2 7.79995 7.2H9.09175C9.23377 7.20006 9.37117 7.25051 9.4795 7.34235C9.58783 7.4342 9.66006 7.5615 9.68335 7.7016L10.1274 10.3626C10.1486 10.4893 10.1285 10.6195 10.0702 10.734C10.0119 10.8485 9.91834 10.9413 9.80335 10.9986L8.87455 11.4624C9.20762 12.2878 9.70365 13.0376 10.333 13.6669C10.9624 14.2963 11.7122 14.7923 12.5376 15.1254L13.002 14.1966C13.0593 14.0817 13.1519 13.9883 13.2663 13.9299C13.3807 13.8716 13.5107 13.8515 13.6374 13.8726L16.2984 14.3166C16.4385 14.3399 16.5657 14.4121 16.6576 14.5205C16.7494 14.6288 16.7999 14.7662 16.8 14.9082V16.2C16.8 16.3591 16.7367 16.5117 16.6242 16.6243C16.5117 16.7368 16.3591 16.8 16.2 16.8H15C10.692 16.8 7.19995 13.308 7.19995 9V7.8Z" fill="#EDEEFC"/>
</svg>
