<svg width="197" height="38" viewBox="0 0 197 38" fill="none" xmlns="http://www.w3.org/2000/svg">
<g clip-path="url(#clip0)">
<path d="M19.7465 10.0429C19.6108 9.63573 19.2715 9.29644 18.8644 9.09287C18.3894 8.8893 17.9144 8.82144 17.4394 8.95716C16.9644 9.09287 16.6251 9.3643 16.4215 9.8393L9.90721 23.9536L3.39293 9.8393C3.18935 9.43216 2.85007 9.09287 2.37507 8.95716C1.96793 8.82144 1.49293 8.82144 1.08578 9.09287C0.610783 9.29644 0.271497 9.63573 0.135783 10.0429C6.89566e-05 10.45 6.89566e-05 10.8572 0.20364 11.3322L8.14292 28.1607C8.55007 28.975 9.16078 29.3822 9.97507 29.3822C10.7215 29.3822 11.3322 28.975 11.7394 28.1607L19.6786 11.3322C19.8822 10.8572 19.8822 10.45 19.7465 10.0429Z" fill="#EDEEFC"/>
<path d="M39.4251 20.0179C39.7644 19.6786 39.9001 19.3393 39.9001 18.8643C39.9001 16.8964 39.5608 15.1321 38.8144 13.6393C38.068 12.1464 36.9823 10.925 35.6251 10.0429C34.2001 9.16071 32.5037 8.75357 30.6037 8.75357C28.6358 8.75357 26.8715 9.22857 25.3108 10.1107C23.7501 10.9929 22.5965 12.2143 21.7144 13.775C20.8323 15.3357 20.4251 17.1679 20.4251 19.2036C20.4251 21.2393 20.9001 23.0714 21.7823 24.6321C22.7323 26.1928 23.9537 27.4143 25.5823 28.2964C27.2108 29.1786 29.043 29.6536 31.1465 29.6536C32.3001 29.6536 33.5215 29.45 34.8108 29.0428C36.1001 28.6357 37.118 28.0929 38.0001 27.4143C38.4073 27.075 38.6108 26.6679 38.6108 26.2607C38.6108 25.7857 38.3394 25.3786 37.9323 25.0393C37.593 24.7679 37.2537 24.6321 36.7787 24.6321C36.3715 24.6321 35.9644 24.7679 35.5573 25.0393C35.0823 25.4464 34.4037 25.7179 33.5894 26.0571C32.7751 26.3286 31.9608 26.4643 31.2144 26.4643C29.7894 26.4643 28.5001 26.125 27.4144 25.5143C26.3287 24.9036 25.4465 24.0214 24.8358 22.9357C24.4287 22.1893 24.1573 21.4429 24.0215 20.5607H38.3394C38.6787 20.4929 39.0858 20.2893 39.4251 20.0179ZM26.8037 12.825C27.8215 12.2143 29.043 11.875 30.468 11.875C31.7573 11.875 32.7751 12.1464 33.6573 12.7571C34.5394 13.3679 35.218 14.1143 35.693 15.1321C36.0323 15.8107 36.2358 16.625 36.3715 17.4393H23.8858C24.0215 16.6929 24.2251 16.0143 24.4965 15.4036C25.0394 14.3179 25.7858 13.5036 26.8037 12.825Z" fill="#EDEEFC"/>
<path d="M51.843 29.5857C49.8072 29.5857 48.043 29.1107 46.4822 28.2286C44.9215 27.2786 43.7001 26.0571 42.818 24.4964C41.9358 22.9357 41.4608 21.1714 41.4608 19.1357C41.4608 17.1 41.868 15.2679 42.7501 13.7071C43.6322 12.1464 44.8537 10.8571 46.3465 9.975C47.9072 9.09286 49.6037 8.61786 51.6394 8.61786C53.1322 8.61786 54.4894 8.88929 55.7108 9.43214C56.9322 9.975 58.018 10.8571 59.0358 12.0107C59.3751 12.4179 59.5108 12.825 59.443 13.2321C59.3751 13.6393 59.0358 14.0464 58.6287 14.3857C58.2894 14.6571 57.8822 14.725 57.4751 14.6571C57.068 14.5893 56.6608 14.3179 56.3215 13.9786C55.1001 12.6893 53.5394 12.0107 51.7072 12.0107C50.418 12.0107 49.2644 12.2821 48.3144 12.8929C47.3644 13.5036 46.5501 14.3179 46.0072 15.3357C45.4644 16.4214 45.193 17.6429 45.193 19.0679C45.193 20.425 45.4644 21.6464 46.0072 22.6643C46.5501 23.75 47.3644 24.5643 48.3822 25.175C49.4001 25.7857 50.5537 26.125 51.9108 26.125C52.793 26.125 53.5394 25.9893 54.218 25.7857C54.8965 25.5821 55.5072 25.2429 56.0501 24.7679C56.4572 24.4286 56.8644 24.225 57.2715 24.225C57.6787 24.1571 58.0858 24.2929 58.4251 24.5643C58.8322 24.9036 59.1037 25.3107 59.1715 25.7857C59.2394 26.1929 59.1037 26.6 58.6965 26.9393C56.8644 28.7714 54.5572 29.5857 51.843 29.5857Z" fill="#EDEEFC"/>
<path d="M73.6251 26.1928C73.2858 25.8536 72.9465 25.65 72.4715 25.65H71.1822C70.3679 25.65 69.6893 25.3107 69.1465 24.6321C68.6036 23.9536 68.3322 23.1393 68.3322 22.1214V12.825H71.5215C72.0643 12.825 72.4715 12.6893 72.8108 12.35C73.1501 12.0786 73.2858 11.6714 73.2858 11.1964C73.2858 10.7214 73.1501 10.3143 72.8108 9.97499C72.4715 9.70356 72.0643 9.49999 71.5215 9.49999H68.3322V4.07142C68.3322 3.52856 68.1286 3.05356 67.7893 2.71427C67.45 2.37499 66.975 2.17142 66.4322 2.17142C65.8893 2.17142 65.4143 2.37499 65.075 2.71427C64.7358 3.05356 64.5322 3.52856 64.5322 4.07142V9.49999H62.7679C62.225 9.49999 61.8179 9.6357 61.4786 9.97499C61.1393 10.2464 61.0036 10.6536 61.0036 11.1964C61.0036 11.6714 61.1393 12.0107 61.4786 12.35C61.8179 12.6214 62.225 12.825 62.7679 12.825H64.5322V22.1214C64.5322 23.4786 64.8036 24.7678 65.4143 25.8536C66.025 26.9393 66.7715 27.8214 67.7893 28.5C68.8072 29.1107 69.8929 29.45 71.1822 29.45H71.8608C72.5393 29.45 73.0822 29.2464 73.4893 28.9071C73.8965 28.5678 74.1001 28.0928 74.1001 27.55C74.1001 27.0071 73.8965 26.5321 73.6251 26.1928Z" fill="#EDEEFC"/>
<path d="M95.6785 13.7072C94.7964 12.1464 93.5749 10.925 92.0142 10.0429C90.4535 9.16073 88.6892 8.68573 86.6535 8.68573C84.6178 8.68573 82.8535 9.16073 81.2928 10.0429C79.7321 10.925 78.5106 12.1464 77.6285 13.7072C76.7464 15.2679 76.2714 17.1 76.2714 19.1357C76.2714 21.1714 76.6785 23.0036 77.4928 24.5643C78.3071 26.125 79.4606 27.3464 80.8856 28.2286C82.3106 29.1107 84.0071 29.5857 85.9071 29.5857C87.6714 29.5857 89.1642 29.1107 90.5213 28.2286C91.6749 27.4822 92.6249 26.3964 93.3714 25.1072V27.0072C93.3714 28.6357 93.0999 29.9929 92.4892 31.1464C91.8785 32.3 91.0642 33.1143 90.0464 33.725C89.0285 34.3357 87.9428 34.6071 86.7214 34.6071C85.4321 34.6071 84.2785 34.3357 83.1928 33.8607C82.1749 33.3857 81.2928 32.7071 80.6142 31.8929C80.3428 31.4857 79.9356 31.2143 79.4606 31.1464C78.9856 31.0786 78.5106 31.1464 78.0356 31.4179C77.6285 31.6893 77.3571 32.0286 77.2892 32.5036C77.2214 32.9786 77.2892 33.3857 77.6285 33.7929C78.7142 35.15 80.0035 36.1679 81.5642 36.9143C83.1249 37.5929 84.8214 38 86.5856 38C88.6214 38 90.4535 37.525 92.0142 36.575C93.5749 35.625 94.7964 34.3357 95.6785 32.7072C96.5606 31.0786 96.9678 29.3143 96.9678 27.2786V19.1357C96.9678 17.1 96.5606 15.2679 95.6785 13.7072ZM90.1142 25.3107C89.0964 25.9214 87.9428 26.1929 86.6535 26.1929C85.3642 26.1929 84.2106 25.9214 83.1928 25.3107C82.1749 24.7 81.4285 23.8857 80.8178 22.8C80.2071 21.7143 79.9356 20.4929 79.9356 19.1357C79.9356 17.7786 80.2071 16.5572 80.8178 15.4714C81.4285 14.3857 82.1749 13.5714 83.1928 12.9607C84.2106 12.35 85.3642 12.0786 86.6535 12.0786C87.9428 12.0786 89.0964 12.35 90.1142 12.9607C91.1321 13.5714 91.8785 14.3857 92.4892 15.4714C93.0321 16.5572 93.3035 17.7786 93.3035 19.1357C93.3035 20.4929 93.0321 21.7143 92.4892 22.8C91.8785 23.8857 91.0642 24.7 90.1142 25.3107Z" fill="#EDEEFC"/>
<path d="M119.225 20.0179C119.564 19.6786 119.7 19.3393 119.7 18.8643C119.7 16.8964 119.361 15.1321 118.614 13.6393C117.868 12.1464 116.782 10.925 115.425 10.0429C114 9.16071 112.304 8.75357 110.404 8.75357C108.436 8.75357 106.671 9.22857 105.111 10.1107C103.55 10.9929 102.396 12.2143 101.514 13.775C100.632 15.3357 100.225 17.1679 100.225 19.2036C100.225 21.2393 100.7 23.0714 101.582 24.6321C102.532 26.1928 103.754 27.4143 105.382 28.2964C107.011 29.1786 108.843 29.6536 110.946 29.6536C112.1 29.6536 113.321 29.45 114.611 29.0428C115.9 28.6357 116.918 28.0929 117.8 27.4143C118.207 27.075 118.411 26.6679 118.411 26.2607C118.411 25.7857 118.139 25.3786 117.732 25.0393C117.393 24.7679 117.054 24.6321 116.579 24.6321C116.172 24.6321 115.764 24.7679 115.357 25.0393C114.882 25.4464 114.204 25.7179 113.389 26.0571C112.575 26.3286 111.761 26.4643 111.014 26.4643C109.589 26.4643 108.3 26.125 107.214 25.5143C106.129 24.9036 105.246 24.0214 104.636 22.9357C104.229 22.1893 103.957 21.4429 103.821 20.5607H118.139C118.479 20.4929 118.886 20.2893 119.225 20.0179ZM106.671 12.825C107.689 12.2143 108.911 11.875 110.336 11.875C111.625 11.875 112.643 12.1464 113.525 12.7571C114.407 13.3679 115.086 14.1143 115.561 15.1321C115.9 15.8107 116.104 16.625 116.239 17.4393H103.686C103.821 16.6929 104.025 16.0143 104.296 15.4036C104.839 14.3179 105.654 13.5036 106.671 12.825Z" fill="#EDEEFC"/>
<path d="M141.279 13.0286C140.464 11.6036 139.379 10.5179 138.021 9.77144C136.664 9.02502 135.104 8.68573 133.339 8.68573C131.711 8.68573 130.218 9.02502 128.861 9.77144C128.114 10.1786 127.504 10.6536 126.961 11.1964V10.7893C126.961 10.1786 126.757 9.77144 126.418 9.3643C126.079 9.02502 125.604 8.82144 124.993 8.82144C124.45 8.82144 123.975 9.02502 123.636 9.3643C123.296 9.70359 123.093 10.1786 123.093 10.7893V27.6179C123.093 28.1607 123.296 28.6357 123.636 28.975C123.975 29.3143 124.45 29.5179 124.993 29.5179C125.604 29.5179 126.011 29.3143 126.418 28.975C126.757 28.6357 126.961 28.1607 126.961 27.6179V16.8964C126.961 15.9464 127.232 15.1322 127.707 14.4536C128.182 13.7072 128.861 13.1643 129.743 12.7572C130.625 12.35 131.575 12.1464 132.593 12.1464C133.746 12.1464 134.764 12.35 135.646 12.825C136.529 13.2322 137.275 13.9107 137.75 14.8607C138.293 15.7429 138.564 16.9643 138.564 18.3893V27.6857C138.564 28.2286 138.768 28.7036 139.107 29.0429C139.446 29.3822 139.921 29.5857 140.464 29.5857C141.007 29.5857 141.482 29.3822 141.821 29.0429C142.161 28.7036 142.364 28.2286 142.364 27.6857V18.2536C142.432 16.2179 142.025 14.4536 141.279 13.0286Z" fill="#EDEEFC"/>
<path d="M150.643 14.7929C151.389 13.5036 152.339 12.5536 153.629 11.8072C154.918 11.0607 156.275 10.7214 157.836 10.7214C159.396 10.7214 160.821 11.0607 162.043 11.8072C163.264 12.5536 164.282 13.5714 165.029 14.7929C165.571 15.8107 165.911 16.8964 166.046 18.05H168.354C168.218 16.4214 167.811 14.9964 166.996 13.6393C166.046 12.0786 164.825 10.7893 163.196 9.90716C161.568 8.95716 159.804 8.55001 157.768 8.55001C155.936 8.55001 154.307 8.95716 152.882 9.70358C151.457 10.45 150.304 11.5357 149.489 12.825V1.15359C149.489 0.8143 149.421 0.542871 149.218 0.3393C149.014 0.135728 148.743 0.0678711 148.404 0.0678711C148.064 0.0678711 147.793 0.135728 147.589 0.3393C147.386 0.542871 147.25 0.8143 147.25 1.15359V18.1179H149.557C149.761 16.8964 150.1 15.8107 150.643 14.7929Z" fill="#00B4D8"/>
<path d="M165.029 23.4107C164.282 24.7 163.332 25.7178 162.043 26.3964C160.821 27.1428 159.396 27.4821 157.836 27.4821C156.275 27.4821 154.85 27.1428 153.629 26.3964C152.339 25.65 151.389 24.6321 150.643 23.4107C150.1 22.3928 149.761 21.3071 149.625 20.0857H147.318C147.454 21.7143 147.929 23.2071 148.743 24.5643C149.693 26.125 150.914 27.3464 152.475 28.2286C154.036 29.1107 155.8 29.5857 157.768 29.5857C159.804 29.5857 161.568 29.1107 163.196 28.2286C164.825 27.2786 166.046 26.0571 166.996 24.4286C167.743 23.0714 168.218 21.6464 168.354 20.0179H166.046C165.911 21.3071 165.571 22.3928 165.029 23.4107Z" fill="#00B4D8"/>
<path d="M171 28.2964C171 28.6357 171.136 28.9072 171.339 29.1107C171.543 29.3143 171.814 29.45 172.154 29.45C172.493 29.45 172.764 29.3143 172.968 29.1107C173.171 28.9072 173.239 28.6357 173.239 28.2964V20.0857H171V28.2964Z" fill="#00B4D8"/>
<path d="M173.239 9.975C173.239 9.63571 173.171 9.36428 172.968 9.16071C172.764 8.95714 172.493 8.88928 172.154 8.88928C171.814 8.88928 171.543 8.95714 171.339 9.16071C171.136 9.36428 171 9.63571 171 9.975V18.1179H173.239V9.975V9.975Z" fill="#00B4D8"/>
<path d="M172.086 4.47855C172.561 4.47855 173.036 4.34284 173.375 3.9357C173.714 3.59641 173.85 3.18927 173.85 2.64641C173.85 2.0357 173.646 1.62855 173.307 1.35712C172.968 1.0857 172.561 0.949982 172.086 0.949982C171.611 0.949982 171.204 1.0857 170.864 1.35712C170.525 1.62855 170.322 2.10355 170.322 2.64641C170.322 3.12141 170.457 3.59641 170.864 3.9357C171.271 4.27498 171.611 4.47855 172.086 4.47855Z" fill="#00B4D8"/>
<path d="M195.564 13.7072C194.614 12.0786 193.393 10.8572 191.832 9.90716C190.271 8.95716 188.439 8.55002 186.471 8.55002C184.436 8.55002 182.671 9.02502 181.043 9.90716C179.414 10.8572 178.193 12.0786 177.243 13.7072C176.496 14.9964 176.021 16.4893 175.886 18.05H185.996C185.25 17.0322 184.571 16.0143 183.825 14.9286C183.282 14.1143 183.689 13.0964 184.639 12.9607C184.979 12.8929 185.318 13.0286 185.589 13.2322C187.218 14.725 188.914 16.2857 190.543 17.8464C190.882 18.1179 191.018 18.525 191.018 18.9322C191.018 19.475 190.882 19.8822 190.475 20.1536C188.846 21.6464 187.218 23.2072 185.589 24.7C185.114 25.175 184.436 25.175 183.961 24.7679C183.486 24.3607 183.418 23.6822 183.757 23.1393C184.504 22.1214 185.25 21.0357 185.929 20.0179H175.818C175.954 21.6464 176.361 23.0714 177.175 24.4286C178.125 26.0572 179.346 27.2786 180.975 28.2286C182.604 29.1786 184.368 29.5857 186.404 29.5857C188.439 29.5857 190.204 29.1107 191.764 28.2286C193.325 27.2786 194.614 26.0572 195.496 24.4286C196.446 22.8679 196.854 21.0357 196.854 19.0679C196.989 17.1679 196.514 15.3357 195.564 13.7072Z" fill="#00B4D8"/>
</g>
<defs>
<clipPath id="clip0">
<rect width="196.989" height="38" fill="white"/>
</clipPath>
</defs>
</svg>
