<?xml version="1.0" encoding="UTF-8" standalone="no"?>
<svg
   xmlns:dc="http://purl.org/dc/elements/1.1/"
   xmlns:cc="http://creativecommons.org/ns#"
   xmlns:rdf="http://www.w3.org/1999/02/22-rdf-syntax-ns#"
   xmlns:svg="http://www.w3.org/2000/svg"
   xmlns="http://www.w3.org/2000/svg"
   xmlns:sodipodi="http://sodipodi.sourceforge.net/DTD/sodipodi-0.dtd"
   xmlns:inkscape="http://www.inkscape.org/namespaces/inkscape"
   version="1.1"
   id="svg2"
   xml:space="preserve"
   width="807"
   height="257"
   viewBox="0 0 807 257"
   sodipodi:docname="vectgenbiotag.svg"
   inkscape:version="1.0.2 (e86c8708, 2021-01-15)"><metadata
     id="metadata8"><rdf:RDF><cc:Work
         rdf:about=""><dc:format>image/svg+xml</dc:format><dc:type
           rdf:resource="http://purl.org/dc/dcmitype/StillImage" /><dc:title /></cc:Work></rdf:RDF></metadata><defs
     id="defs6"><clipPath
       clipPathUnits="userSpaceOnUse"
       id="clipPath20"><path
         d="M 0,1080 H 1920 V 0 H 0 Z"
         id="path18" /></clipPath><clipPath
       clipPathUnits="userSpaceOnUse"
       id="clipPath56"><path
         d="m 1097.5,615.551 h 53.59 v -89.22 h -53.59 z"
         id="path54" /></clipPath><clipPath
       clipPathUnits="userSpaceOnUse"
       id="clipPath72"><path
         d="m 1165.3,587.951 h 10.68 v -26.44 h -10.68 z"
         id="path70" /></clipPath><clipPath
       clipPathUnits="userSpaceOnUse"
       id="clipPath86"><path
         d="m 1165.3,556.011 h 10.68 v -28.84 h -10.68 z"
         id="path84" /></clipPath><clipPath
       clipPathUnits="userSpaceOnUse"
       id="clipPath100"><path
         d="m 1163.02,614.714 h 15.24 v -15.24 h -15.24 z"
         id="path98" /></clipPath><clipPath
       clipPathUnits="userSpaceOnUse"
       id="clipPath116"><path
         d="m 1190.11,556.011 h 17.87 v -22.96 h -17.87 z"
         id="path114" /></clipPath><clipPath
       clipPathUnits="userSpaceOnUse"
       id="clipPath132"><path
         d="m 1190.25,582.681 h 17.73 v -21.17 h -17.73 z"
         id="path130" /></clipPath><clipPath
       clipPathUnits="userSpaceOnUse"
       id="clipPath148"><path
         d="m 1199.84,588.911 h 48.2 v -62.58 h -48.2 z"
         id="path146" /></clipPath></defs><sodipodi:namedview
     pagecolor="#ffffff"
     bordercolor="#666666"
     borderopacity="1"
     objecttolerance="10"
     gridtolerance="10"
     guidetolerance="10"
     inkscape:pageopacity="0.34509804"
     inkscape:pageshadow="2"
     inkscape:window-width="1148"
     inkscape:window-height="794"
     id="namedview4"
     inkscape:document-rotation="0"
     showgrid="false"
     inkscape:zoom="0.69665275"
     inkscape:cx="436.69659"
     inkscape:cy="363.12267"
     inkscape:window-x="0"
     inkscape:window-y="25"
     inkscape:window-maximized="0"
     inkscape:current-layer="g10" /><g
     id="g10"
     inkscape:groupmode="layer"
     inkscape:label="Logo_Precision delivered..hope restored"
     transform="matrix(1.3333333,0,0,-1.3333333,0,1440)"><g
       id="g14"
       transform="translate(-652.40539,432.78378)"><g
         id="g16"
         clip-path="url(#clipPath20)"
         transform="matrix(1,0,0,1.0290317,-4.3063062,-21.10021)"><g
           id="g22"
           transform="translate(715.5391,587.9536)"><path
             d="m 0,0 c -0.721,-0.52 -1.221,-1.18 -1.5,-1.98 l -12.121,-32.88 c -0.68,-1.92 -1.26,-3.801 -1.739,-5.64 -0.48,-1.84 -0.921,-3.68 -1.321,-5.52 -0.36,1.84 -0.78,3.68 -1.259,5.52 -0.48,1.839 -1.04,3.72 -1.681,5.64 L -31.5,-1.98 c -0.24,0.8 -0.73,1.46 -1.471,1.98 -0.74,0.52 -1.67,0.78 -2.79,0.78 H -48 l 24.42,-61.56 h 13.439 L 14.279,0.78 H 2.58 C 1.579,0.78 0.719,0.52 0,0"
             style="fill:#ffffff;fill-opacity:1;fill-rule:nonzero;stroke:none"
             id="path24" /></g><g
           id="g26"
           transform="translate(752.1689,575.4106)"><path
             d="m 0,0 c 2.46,2.44 5.83,3.66 10.11,3.66 2.2,0 4.13,-0.37 5.79,-1.11 1.66,-0.74 3.03,-1.75 4.11,-3.03 1.08,-1.28 1.89,-2.77 2.43,-4.47 0.54,-1.7 0.81,-3.51 0.81,-5.43 H -4.71 C -4.03,-5.9 -2.46,-2.44 0,0 m 28.89,-32.28 c -0.92,0 -1.87,-0.28 -2.85,-0.84 -0.98,-0.56 -2.12,-1.18 -3.42,-1.86 -1.3,-0.68 -2.82,-1.3 -4.56,-1.86 -1.74,-0.56 -3.81,-0.84 -6.21,-0.84 -2.4,0 -4.59,0.37 -6.57,1.11 -1.98,0.74 -3.69,1.86 -5.13,3.36 -1.44,1.5 -2.6,3.4 -3.48,5.7 -0.88,2.3 -1.44,5.03 -1.68,8.19 h 38.1 c 1.36,0 2.28,0.39 2.76,1.17 0.48,0.78 0.72,2.29 0.72,4.53 0,4.44 -0.67,8.39 -2.01,11.85 -1.34,3.46 -3.19,6.38 -5.55,8.76 -2.36,2.38 -5.18,4.19 -8.46,5.43 -3.28,1.24 -6.86,1.86 -10.74,1.86 -4.6,0 -8.73,-0.8 -12.39,-2.4 -3.66,-1.6 -6.76,-3.77 -9.3,-6.51 -2.54,-2.74 -4.49,-5.96 -5.85,-9.66 -1.36,-3.7 -2.04,-7.65 -2.04,-11.85 0,-5.4 0.78,-10.15 2.34,-14.25 1.56,-4.1 3.7,-7.54 6.42,-10.32 2.72,-2.78 5.92,-4.88 9.6,-6.3 3.68,-1.42 7.66,-2.13 11.94,-2.13 2.16,0 4.39,0.16 6.69,0.48 2.3,0.32 4.56,0.869 6.78,1.65 2.22,0.78 4.35,1.82 6.39,3.12 2.04,1.3 3.88,2.91 5.52,4.83 l -4.26,5.4 c -0.6,0.92 -1.52,1.38 -2.76,1.38"
             style="fill:#ffffff;fill-opacity:1;fill-rule:nonzero;stroke:none"
             id="path28" /></g><g
           id="g30"
           transform="translate(841.4785,543.1338)"><path
             d="m 0,0 c -0.92,0 -1.75,-0.29 -2.49,-0.87 -0.74,-0.58 -1.61,-1.221 -2.61,-1.92 -1,-0.7 -2.23,-1.34 -3.689,-1.92 -1.461,-0.58 -3.371,-0.87 -5.731,-0.87 -2.361,0 -4.48,0.45 -6.359,1.351 -1.881,0.899 -3.48,2.219 -4.801,3.959 -1.32,1.741 -2.33,3.89 -3.029,6.451 -0.701,2.558 -1.051,5.479 -1.051,8.759 0,3.16 0.321,5.99 0.961,8.49 0.639,2.499 1.61,4.63 2.91,6.39 1.299,1.76 2.93,3.11 4.889,4.05 1.959,0.94 4.24,1.41 6.84,1.41 2.041,0 3.75,-0.231 5.131,-0.69 1.379,-0.46 2.57,-0.981 3.57,-1.56 0.998,-0.58 1.859,-1.101 2.58,-1.56 0.719,-0.46 1.459,-0.69 2.219,-0.69 0.801,0 1.41,0.159 1.83,0.48 0.42,0.32 0.85,0.76 1.291,1.32 l 3.9,5.4 c -2.761,2.76 -5.871,4.88 -9.33,6.36 -3.461,1.479 -7.492,2.22 -12.09,2.22 -4.841,0 -9.121,-0.801 -12.841,-2.4 -3.719,-1.6 -6.84,-3.81 -9.36,-6.63 -2.519,-2.82 -4.429,-6.16 -5.73,-10.02 -1.299,-3.861 -1.949,-8.05 -1.949,-12.57 0,-5.04 0.728,-9.531 2.189,-13.469 1.461,-3.941 3.451,-7.271 5.971,-9.991 2.519,-2.72 5.459,-4.791 8.82,-6.209 3.359,-1.42 6.939,-2.13 10.74,-2.13 2.16,0 4.328,0.16 6.51,0.479 2.18,0.32 4.299,0.87 6.359,1.651 2.061,0.779 4.051,1.819 5.971,3.12 1.92,1.298 3.699,2.909 5.34,4.83 L 2.701,-1.38 C 2.1,-0.46 1.201,0 0,0"
             style="fill:#ffffff;fill-opacity:1;fill-rule:nonzero;stroke:none"
             id="path32" /></g><g
           id="g34"
           transform="translate(888.998,539.8643)"><path
             d="M 0,0 C -0.279,0.219 -0.639,0.33 -1.08,0.33 -1.439,0.33 -1.799,0.219 -2.158,0 -2.52,-0.221 -2.93,-0.45 -3.389,-0.69 c -0.461,-0.241 -1,-0.471 -1.621,-0.69 -0.619,-0.221 -1.39,-0.33 -2.308,-0.33 -1.641,0 -2.932,0.54 -3.871,1.62 -0.94,1.08 -1.411,2.58 -1.411,4.5 V 37.77 H 3.842 V 48.33 H -12.6 v 19.379 h -7.679 c -0.881,0 -1.6,-0.22 -2.16,-0.659 -0.561,-0.441 -0.94,-1.061 -1.141,-1.861 L -26.699,48.39 -36.6,46.77 v -5.88 c 0,-1.041 0.28,-1.821 0.84,-2.34 0.561,-0.521 1.24,-0.78 2.041,-0.78 h 6.299 V 3.39 c 0,-5.321 1.43,-9.491 4.291,-12.51 2.859,-3.021 6.969,-4.53 12.33,-4.53 3,0 5.899,0.461 8.699,1.379 2.801,0.92 5.282,2.281 7.442,4.081 L 0.9,-0.99 C 0.58,-0.551 0.279,-0.221 0,0"
             style="fill:#ffffff;fill-opacity:1;fill-rule:nonzero;stroke:none"
             id="path36" /></g><g
           id="g38"
           transform="translate(935.0488,565.4507)"><path
             d="m 0,0 c -0.46,-1.24 -1.14,-2.3 -2.04,-3.18 -0.9,-0.88 -2.03,-1.57 -3.39,-2.07 -1.36,-0.5 -2.96,-0.75 -4.8,-0.75 -1.8,0 -3.39,0.25 -4.77,0.75 -1.38,0.5 -2.52,1.2 -3.42,2.1 -0.9,0.9 -1.58,1.97 -2.04,3.21 -0.46,1.24 -0.69,2.58 -0.69,4.02 0,3.04 0.91,5.45 2.73,7.23 1.82,1.78 4.55,2.67 8.19,2.67 3.64,0 6.37,-0.89 8.19,-2.67 C -0.22,9.53 0.69,7.12 0.69,4.08 0.69,2.6 0.46,1.24 0,0 m -18.69,-34.2 c 1.88,-0.24 3.81,-0.4 5.79,-0.48 1.98,-0.08 3.9,-0.17 5.76,-0.27 1.86,-0.1 3.62,-0.25 5.28,-0.45 1.66,-0.2 3.11,-0.511 4.35,-0.931 1.24,-0.419 2.22,-1.009 2.94,-1.769 0.72,-0.76 1.08,-1.74 1.08,-2.941 0,-1.199 -0.3,-2.309 -0.9,-3.33 -0.6,-1.019 -1.55,-1.899 -2.85,-2.639 -1.3,-0.74 -2.95,-1.321 -4.95,-1.74 -2,-0.42 -4.38,-0.63 -7.14,-0.63 -2.72,0 -5.02,0.19 -6.9,0.57 -1.88,0.38 -3.41,0.91 -4.59,1.59 -1.18,0.679 -2.04,1.49 -2.58,2.429 -0.54,0.941 -0.81,1.951 -0.81,3.031 0,1.639 0.51,3.08 1.53,4.32 1.02,1.24 2.35,2.319 3.99,3.24 M 3.57,21.18 c -1.92,1.04 -4.04,1.83 -6.36,2.37 -2.32,0.54 -4.8,0.81 -7.44,0.81 -3.52,0 -6.77,-0.46 -9.75,-1.38 -2.98,-0.92 -5.56,-2.25 -7.74,-3.99 -2.18,-1.74 -3.88,-3.84 -5.1,-6.3 -1.22,-2.46 -1.83,-5.21 -1.83,-8.25 0,-3.76 0.89,-7.04 2.67,-9.84 1.78,-2.8 4.23,-5.04 7.35,-6.72 -1.36,-0.68 -2.54,-1.45 -3.54,-2.31 -1,-0.86 -1.83,-1.77 -2.49,-2.73 -0.66,-0.96 -1.16,-1.93 -1.5,-2.91 -0.34,-0.98 -0.51,-1.93 -0.51,-2.85 0,-2.28 0.48,-4.121 1.44,-5.52 0.96,-1.4 2.26,-2.52 3.9,-3.36 -3.04,-1.16 -5.43,-2.71 -7.17,-4.65 -1.74,-1.94 -2.61,-4.35 -2.61,-7.23 0,-2.12 0.56,-4.16 1.68,-6.12 1.12,-1.96 2.82,-3.69 5.1,-5.19 2.28,-1.5 5.14,-2.7 8.58,-3.6 3.44,-0.9 7.48,-1.35 12.12,-1.35 4.72,0 8.93,0.609 12.63,1.83 3.7,1.22 6.82,2.83 9.36,4.83 2.54,2 4.48,4.28 5.82,6.84 1.34,2.56 2.01,5.2 2.01,7.92 0,2.92 -0.57,5.31 -1.71,7.17 -1.14,1.86 -2.65,3.33 -4.53,4.41 -1.88,1.08 -4.02,1.87 -6.42,2.37 -2.4,0.5 -4.86,0.85 -7.38,1.05 -2.52,0.2 -4.98,0.33 -7.38,0.39 -2.4,0.06 -4.54,0.21 -6.42,0.45 -1.88,0.24 -3.39,0.65 -4.53,1.23 -1.14,0.58 -1.71,1.49 -1.71,2.73 0,1.44 0.96,2.74 2.88,3.9 1.08,-0.2 2.18,-0.36 3.3,-0.48 1.12,-0.12 2.28,-0.18 3.48,-0.18 3.4,0 6.57,0.47 9.51,1.41 2.94,0.94 5.49,2.27 7.65,3.99 2.16,1.72 3.85,3.81 5.07,6.27 1.22,2.46 1.83,5.21 1.83,8.25 0,2.52 -0.42,4.84 -1.26,6.96 l 5.52,1.02 c 2.12,0.4 3.18,1.48 3.18,3.24 v 5.52 z"
             style="fill:#ffffff;fill-opacity:1;fill-rule:nonzero;stroke:none"
             id="path40" /></g><g
           id="g42"
           transform="translate(981.0088,575.4106)"><path
             d="m 0,0 c 2.46,2.44 5.83,3.66 10.11,3.66 2.201,0 4.13,-0.37 5.79,-1.11 1.661,-0.74 3.031,-1.75 4.11,-3.03 1.08,-1.28 1.89,-2.77 2.43,-4.47 0.54,-1.7 0.81,-3.51 0.81,-5.43 H -4.71 C -4.029,-5.9 -2.46,-2.44 0,0 m 28.891,-32.28 c -0.92,0 -1.87,-0.28 -2.851,-0.84 -0.979,-0.56 -2.12,-1.18 -3.42,-1.86 -1.3,-0.68 -2.82,-1.3 -4.559,-1.86 -1.741,-0.56 -3.811,-0.84 -6.21,-0.84 -2.401,0 -4.591,0.37 -6.571,1.11 -1.98,0.74 -3.69,1.86 -5.13,3.36 -1.44,1.5 -2.6,3.4 -3.48,5.7 -0.88,2.3 -1.44,5.03 -1.68,8.19 h 38.1 c 1.36,0 2.28,0.39 2.761,1.17 0.479,0.78 0.719,2.29 0.719,4.53 0,4.44 -0.67,8.39 -2.009,11.85 -1.34,3.46 -3.191,6.38 -5.551,8.76 -2.36,2.38 -5.18,4.19 -8.46,5.43 -3.279,1.24 -6.86,1.86 -10.739,1.86 -4.601,0 -8.731,-0.8 -12.391,-2.4 -3.66,-1.6 -6.76,-3.77 -9.3,-6.51 -2.54,-2.74 -4.49,-5.96 -5.849,-9.66 -1.361,-3.7 -2.041,-7.65 -2.041,-11.85 0,-5.4 0.78,-10.15 2.34,-14.25 1.56,-4.1 3.701,-7.54 6.42,-10.32 2.72,-2.78 5.92,-4.88 9.6,-6.3 3.681,-1.42 7.66,-2.13 11.94,-2.13 2.16,0 4.39,0.16 6.691,0.48 2.3,0.32 4.559,0.869 6.779,1.65 2.221,0.78 4.351,1.82 6.391,3.12 2.04,1.3 3.88,2.91 5.519,4.83 l -4.26,5.4 c -0.6,0.92 -1.52,1.38 -2.759,1.38"
             style="fill:#ffffff;fill-opacity:1;fill-rule:nonzero;stroke:none"
             id="path44" /></g><g
           id="g46"
           transform="translate(1077.0098,583.1836)"><path
             d="m 0,0 c -1.74,2.06 -3.912,3.66 -6.512,4.8 -2.599,1.14 -5.58,1.71 -8.939,1.71 -2.08,0 -4,-0.21 -5.76,-0.63 -1.76,-0.42 -3.41,-1 -4.949,-1.74 -1.541,-0.741 -3,-1.64 -4.381,-2.7 -1.379,-1.06 -2.691,-2.211 -3.93,-3.45 l -1.019,4.86 c -0.602,1.8 -1.862,2.7 -3.781,2.7 h -9.059 v -61.56 h 14.818 v 44.52 c 2,2 4.121,3.58 6.362,4.74 2.238,1.16 4.638,1.74 7.199,1.74 3.519,0 6.14,-1.03 7.859,-3.09 1.721,-2.06 2.58,-4.97 2.58,-8.73 V -56.01 H 5.309 v 39.18 c 0,3.44 -0.45,6.59 -1.35,9.45 C 3.059,-4.521 1.738,-2.061 0,0"
             style="fill:#ffffff;fill-opacity:1;fill-rule:nonzero;stroke:none"
             id="path48" /></g><g
           id="g50"><g
             id="g52" /><g
             id="g64"><g
               clip-path="url(#clipPath56)"
               opacity="0.649994"
               id="g62"><g
                 transform="translate(1140.0391,556.0107)"
                 id="g60"><path
                   d="m 0,0 c -0.32,-6.66 -1.81,-11.77 -4.5,-15.34 -3.04,-4.04 -7.42,-6.06 -13.14,-6.06 -2.8,0 -5.37,0.54 -7.71,1.62 -2.34,1.08 -4.49,2.94 -6.45,5.58 V 0 h -10.74 v -28.84 h 6.9 c 1.52,0 2.44,0.76 2.76,2.279 l 0.54,5.521 c 2.04,-2.76 4.43,-4.891 7.17,-6.391 2.74,-1.5 6.11,-2.25 10.11,-2.25 4.039,0 7.68,0.79 10.92,2.37 3.24,1.581 5.99,3.801 8.25,6.661 2.26,2.86 3.99,6.31 5.19,10.35 0.94,3.16 1.51,6.59 1.71,10.3 z m 9.51,15.56 c -1.06,3.68 -2.59,6.81 -4.59,9.39 -2,2.58 -4.43,4.55 -7.29,5.91 -2.86,1.36 -6.07,2.04 -9.63,2.04 -4.2,0 -7.91,-0.88 -11.13,-2.64 -3.22,-1.76 -6.11,-4.12 -8.67,-7.08 V 59.54 H -42.54 V 5.5 h 10.74 v 9.7 c 2.2,2.92 4.59,5.18 7.17,6.78 2.58,1.6 5.609,2.4 9.09,2.4 5,0 8.85,-1.75 11.55,-5.25 C -1.64,16.08 -0.31,11.54 0,5.5 H 11.05 C 10.9,9.17 10.39,12.52 9.51,15.56"
                   style="fill:#ffffff;fill-opacity:1;fill-rule:nonzero;stroke:none"
                   id="path58" /></g></g></g></g><g
           id="g66"><g
             id="g68" /><g
             id="g78"><g
               clip-path="url(#clipPath72)"
               opacity="0.649994"
               id="g76"><path
                 d="m 1175.979,561.511 h -10.681 v 26.44 h 10.681 z"
                 style="fill:#ffffff;fill-opacity:1;fill-rule:nonzero;stroke:none"
                 id="path74" /></g></g></g><g
           id="g80"><g
             id="g82" /><g
             id="g92"><g
               clip-path="url(#clipPath86)"
               opacity="0.649994"
               id="g90"><path
                 d="m 1165.299,556.011 h 10.681 v -28.84 h -10.681 z"
                 style="fill:#ffffff;fill-opacity:1;fill-rule:nonzero;stroke:none"
                 id="path88" /></g></g></g><g
           id="g94"><g
             id="g96" /><g
             id="g108"><g
               clip-path="url(#clipPath100)"
               opacity="0.649994"
               id="g106"><g
                 transform="translate(1175.9473,612.4639)"
                 id="g104"><path
                   d="m 0,0 c -0.699,0.699 -1.52,1.25 -2.459,1.65 -0.941,0.399 -1.932,0.6 -2.971,0.6 -1.041,0 -2.009,-0.201 -2.91,-0.6 -0.9,-0.4 -1.689,-0.951 -2.369,-1.65 -0.682,-0.7 -1.221,-1.521 -1.621,-2.46 -0.4,-0.94 -0.6,-1.93 -0.6,-2.97 0,-1.041 0.2,-2.01 0.6,-2.91 0.4,-0.9 0.939,-1.701 1.621,-2.4 0.68,-0.7 1.469,-1.251 2.369,-1.65 0.901,-0.401 1.869,-0.6 2.91,-0.6 1.039,0 2.03,0.199 2.971,0.6 0.939,0.399 1.76,0.95 2.459,1.65 0.699,0.699 1.26,1.5 1.68,2.4 0.42,0.9 0.631,1.869 0.631,2.91 0,1.04 -0.211,2.03 -0.631,2.97 C 1.26,-1.521 0.699,-0.7 0,0"
                   style="fill:#ffffff;fill-opacity:1;fill-rule:nonzero;stroke:none"
                   id="path102" /></g></g></g></g><g
           id="g110"><g
             id="g112" /><g
             id="g124"><g
               clip-path="url(#clipPath116)"
               opacity="0.649994"
               id="g122"><g
                 transform="translate(1207.9795,556.0107)"
                 id="g120"><path
                   d="m 0,0 -8.311,-22.96 c -0.629,0.55 -1.219,1.13 -1.79,1.739 -2.519,2.721 -4.45,6.001 -5.79,9.841 -1.189,3.41 -1.849,7.21 -1.979,11.38 z"
                   style="fill:#ffffff;fill-opacity:1;fill-rule:nonzero;stroke:none"
                   id="path118" /></g></g></g></g><g
           id="g126"><g
             id="g128" /><g
             id="g140"><g
               clip-path="url(#clipPath132)"
               opacity="0.649994"
               id="g138"><g
                 transform="translate(1200.3193,582.6807)"
                 id="g136"><path
                   d="m 0,0 7.66,-21.17 h -17.73 c 0.259,3.24 0.88,6.24 1.84,9.01 1.339,3.86 3.27,7.15 5.79,9.87 C -1.681,-1.46 -0.86,-0.7 0,0"
                   style="fill:#ffffff;fill-opacity:1;fill-rule:nonzero;stroke:none"
                   id="path134" /></g></g></g></g><g
           id="g142"><g
             id="g144" /><g
             id="g156"><g
               clip-path="url(#clipPath148)"
               opacity="0.649994"
               id="g154"><g
                 transform="translate(1248.0391,557.5903)"
                 id="g152"><path
                   d="m 0,0 c 0,-4.8 -0.67,-9.12 -2.01,-12.96 -1.34,-3.84 -3.27,-7.12 -5.79,-9.84 -2.52,-2.72 -5.56,-4.81 -9.12,-6.27 -3.56,-1.46 -7.56,-2.19 -12,-2.19 -4.48,0 -8.51,0.73 -12.09,2.19 -2.7,1.1 -5.1,2.56 -7.19,4.37 12.03,10.37 31.2,20.13 46.679,25.87 -14.879,5.52 -33.169,14.75 -45.25,24.67 1.741,1.31 3.661,2.39 5.761,3.26 3.58,1.48 7.61,2.22 12.09,2.22 4.44,0 8.44,-0.74 12,-2.22 3.56,-1.48 6.6,-3.58 9.12,-6.3 2.52,-2.72 4.45,-6.01 5.79,-9.87 C -0.67,9.07 0,4.76 0,0"
                   style="fill:#ffffff;fill-opacity:1;fill-rule:nonzero;stroke:none"
                   id="path150" /></g></g></g></g><g
           id="g158"
           transform="translate(676.6411,483.1133)"><path
             d="m 0,0 c 0.981,0 1.863,0.137 2.644,0.411 0.78,0.275 1.443,0.654 1.986,1.14 0.544,0.485 0.96,1.058 1.251,1.718 0.29,0.659 0.435,1.379 0.435,2.161 0,1.719 -0.527,3.044 -1.583,3.972 C 3.678,10.331 2.1,10.796 0,10.796 H -4.163 V 0 Z m 0,12.078 c 2.628,0 4.609,-0.575 5.944,-1.725 C 7.279,9.202 7.947,7.561 7.947,5.43 7.947,4.448 7.762,3.546 7.393,2.723 7.023,1.899 6.496,1.189 5.81,0.594 5.124,-0.003 4.29,-0.467 3.309,-0.8 2.327,-1.132 1.224,-1.298 0,-1.298 h -4.163 v -9.023 h -1.63 v 22.399 z"
             style="fill:#ffffff;fill-opacity:1;fill-rule:nonzero;stroke:none"
             id="path160" /></g><g
           id="g162"
           transform="translate(692.5029,484.7432)"><path
             d="m 0,0 c 0.243,0.644 0.52,1.217 0.831,1.718 0.311,0.501 0.67,0.926 1.077,1.274 0.405,0.349 0.86,0.614 1.361,0.8 0.501,0.185 1.058,0.276 1.67,0.276 0.327,0 0.649,-0.029 0.965,-0.087 C 6.221,3.924 6.5,3.82 6.744,3.673 L 6.617,2.628 C 6.564,2.459 6.464,2.375 6.316,2.375 6.189,2.375 5.997,2.412 5.738,2.485 5.479,2.56 5.139,2.597 4.717,2.597 4.105,2.597 3.564,2.504 3.095,2.319 2.625,2.135 2.203,1.857 1.828,1.488 1.454,1.119 1.126,0.662 0.847,0.119 0.567,-0.425 0.311,-1.05 0.079,-1.757 V -11.951 H -1.44 V 3.8 h 0.807 c 0.179,0 0.306,-0.037 0.38,-0.112 0.073,-0.073 0.121,-0.2 0.142,-0.379 z"
             style="fill:#ffffff;fill-opacity:1;fill-rule:nonzero;stroke:none"
             id="path164" /></g><g
           id="g166"
           transform="translate(715.3926,482.2578)"><path
             d="m 0,0 c 0,0.845 -0.119,1.602 -0.356,2.272 -0.238,0.67 -0.573,1.237 -1.005,1.702 -0.433,0.463 -0.948,0.82 -1.544,1.068 -0.596,0.248 -1.253,0.372 -1.971,0.372 -0.812,0 -1.541,-0.127 -2.184,-0.38 C -7.704,4.781 -8.261,4.417 -8.73,3.942 -9.2,3.467 -9.577,2.897 -9.862,2.232 -10.147,1.567 -10.337,0.823 -10.432,0 Z m -10.511,-0.965 v -0.301 c 0,-1.182 0.137,-2.221 0.411,-3.119 0.275,-0.896 0.665,-1.648 1.172,-2.256 0.506,-0.606 1.118,-1.062 1.836,-1.369 0.717,-0.305 1.52,-0.459 2.406,-0.459 0.791,0 1.478,0.087 2.058,0.262 0.58,0.174 1.068,0.369 1.464,0.585 0.396,0.217 0.71,0.412 0.942,0.586 0.232,0.175 0.401,0.262 0.507,0.262 0.137,0 0.242,-0.054 0.317,-0.159 L 1.013,-7.439 C 0.76,-7.756 0.424,-8.052 0.008,-8.326 -0.409,-8.601 -0.874,-8.835 -1.385,-9.03 c -0.512,-0.196 -1.061,-0.352 -1.647,-0.467 -0.585,-0.116 -1.174,-0.175 -1.765,-0.175 -1.076,0 -2.057,0.188 -2.944,0.563 -0.886,0.374 -1.646,0.92 -2.28,1.637 -0.633,0.718 -1.121,1.597 -1.464,2.636 -0.343,1.04 -0.514,2.23 -0.514,3.57 0,1.129 0.161,2.171 0.482,3.126 0.322,0.955 0.787,1.779 1.393,2.47 0.607,0.691 1.352,1.232 2.232,1.622 0.882,0.391 1.882,0.586 3,0.586 0.887,0 1.71,-0.153 2.47,-0.459 0.76,-0.307 1.419,-0.752 1.979,-1.338 C 0.116,4.155 0.556,3.436 0.878,2.581 1.2,1.726 1.361,0.744 1.361,-0.363 1.361,-0.596 1.33,-0.754 1.266,-0.839 1.203,-0.923 1.097,-0.965 0.95,-0.965 Z"
             style="fill:#ffffff;fill-opacity:1;fill-rule:nonzero;stroke:none"
             id="path168" /></g><g
           id="g170"
           transform="translate(734.4194,486.4375)"><path
             d="m 0,0 c -0.053,-0.053 -0.103,-0.098 -0.15,-0.135 -0.048,-0.037 -0.114,-0.055 -0.198,-0.055 -0.106,0 -0.248,0.071 -0.427,0.213 -0.18,0.143 -0.423,0.298 -0.728,0.467 -0.307,0.169 -0.689,0.325 -1.148,0.467 -0.459,0.143 -1.016,0.214 -1.67,0.214 -0.908,0 -1.713,-0.161 -2.414,-0.483 -0.702,-0.322 -1.296,-0.783 -1.781,-1.384 -0.486,-0.602 -0.853,-1.33 -1.1,-2.185 -0.248,-0.855 -0.372,-1.815 -0.372,-2.882 0,-1.107 0.129,-2.089 0.387,-2.944 0.259,-0.855 0.626,-1.574 1.101,-2.16 0.475,-0.586 1.049,-1.032 1.725,-1.338 0.675,-0.306 1.425,-0.459 2.248,-0.459 0.76,0 1.395,0.09 1.907,0.269 0.512,0.179 0.934,0.374 1.267,0.585 0.332,0.211 0.593,0.407 0.783,0.586 0.19,0.18 0.349,0.27 0.475,0.27 0.127,0 0.232,-0.054 0.317,-0.158 l 0.396,-0.507 c -0.243,-0.317 -0.549,-0.612 -0.919,-0.887 -0.369,-0.274 -0.786,-0.512 -1.25,-0.712 -0.465,-0.201 -0.969,-0.356 -1.512,-0.468 -0.543,-0.11 -1.111,-0.166 -1.702,-0.166 -1.002,0 -1.918,0.183 -2.746,0.547 -0.829,0.364 -1.541,0.892 -2.137,1.582 -0.597,0.692 -1.06,1.538 -1.393,2.541 -0.333,1.003 -0.499,2.143 -0.499,3.419 0,1.203 0.159,2.301 0.475,3.293 0.317,0.992 0.781,1.847 1.393,2.565 0.612,0.717 1.359,1.274 2.24,1.67 0.881,0.395 1.892,0.593 3.032,0.593 1.023,0 1.931,-0.164 2.722,-0.49 0.792,-0.328 1.483,-0.77 2.074,-1.33 z"
             style="fill:#ffffff;fill-opacity:1;fill-rule:nonzero;stroke:none"
             id="path172" /></g><path
           d="m 743.411,472.792 h -1.504 v 15.751 h 1.504 z m 0.649,21.181 c 0,-0.191 -0.04,-0.368 -0.119,-0.531 -0.079,-0.164 -0.182,-0.308 -0.309,-0.435 -0.126,-0.127 -0.274,-0.228 -0.443,-0.301 -0.169,-0.074 -0.348,-0.111 -0.538,-0.111 -0.19,0 -0.37,0.037 -0.538,0.111 -0.169,0.073 -0.317,0.174 -0.444,0.301 -0.126,0.127 -0.227,0.271 -0.3,0.435 -0.074,0.163 -0.111,0.34 -0.111,0.531 0,0.189 0.037,0.372 0.111,0.546 0.073,0.173 0.174,0.324 0.3,0.451 0.127,0.127 0.275,0.226 0.444,0.301 0.168,0.073 0.348,0.11 0.538,0.11 0.19,0 0.369,-0.037 0.538,-0.11 0.169,-0.075 0.317,-0.174 0.443,-0.301 0.127,-0.127 0.23,-0.278 0.309,-0.451 0.079,-0.174 0.119,-0.357 0.119,-0.546"
           style="fill:#ffffff;fill-opacity:1;fill-rule:nonzero;stroke:none"
           id="path174" /><g
           id="g176"
           transform="translate(760.4116,486.5957)"><path
             d="m 0,0 c -0.084,-0.148 -0.206,-0.222 -0.364,-0.222 -0.116,0 -0.264,0.066 -0.443,0.199 -0.18,0.131 -0.42,0.279 -0.72,0.442 -0.301,0.164 -0.673,0.311 -1.117,0.443 -0.443,0.132 -0.981,0.199 -1.614,0.199 -0.57,0 -1.09,-0.082 -1.559,-0.246 -0.47,-0.164 -0.871,-0.382 -1.204,-0.657 -0.332,-0.274 -0.588,-0.594 -0.767,-0.958 -0.18,-0.364 -0.269,-0.746 -0.269,-1.147 0,-0.496 0.126,-0.907 0.38,-1.235 0.253,-0.327 0.583,-0.607 0.989,-0.839 0.406,-0.232 0.873,-0.433 1.401,-0.601 0.528,-0.169 1.063,-0.338 1.607,-0.507 0.543,-0.169 1.078,-0.356 1.606,-0.562 0.528,-0.205 0.995,-0.461 1.401,-0.768 0.406,-0.306 0.736,-0.681 0.99,-1.124 0.253,-0.442 0.38,-0.981 0.38,-1.614 0,-0.687 -0.122,-1.324 -0.364,-1.915 -0.243,-0.592 -0.6,-1.104 -1.069,-1.536 -0.47,-0.433 -1.048,-0.776 -1.733,-1.029 -0.686,-0.254 -1.472,-0.38 -2.359,-0.38 -1.108,0 -2.063,0.177 -2.865,0.531 -0.802,0.353 -1.52,0.814 -2.153,1.384 l 0.348,0.538 c 0.053,0.085 0.114,0.148 0.182,0.191 0.069,0.042 0.161,0.063 0.277,0.063 0.137,0 0.304,-0.085 0.499,-0.254 0.195,-0.168 0.457,-0.35 0.784,-0.545 0.326,-0.196 0.73,-0.378 1.211,-0.546 0.48,-0.169 1.073,-0.254 1.78,-0.254 0.665,0 1.251,0.093 1.758,0.277 0.506,0.185 0.928,0.436 1.266,0.752 0.338,0.316 0.594,0.689 0.767,1.116 0.175,0.427 0.262,0.878 0.262,1.354 0,0.527 -0.127,0.965 -0.38,1.313 -0.253,0.349 -0.586,0.644 -0.997,0.887 -0.412,0.242 -0.879,0.448 -1.401,0.617 -0.523,0.169 -1.058,0.338 -1.607,0.507 -0.549,0.168 -1.085,0.354 -1.607,0.554 -0.522,0.2 -0.989,0.454 -1.401,0.76 -0.411,0.305 -0.744,0.677 -0.997,1.116 -0.253,0.437 -0.38,0.983 -0.38,1.638 0,0.559 0.121,1.097 0.364,1.615 0.243,0.516 0.588,0.97 1.037,1.361 0.448,0.391 0.995,0.702 1.639,0.934 0.643,0.232 1.366,0.348 2.168,0.348 0.96,0 1.813,-0.137 2.557,-0.411 0.743,-0.275 1.422,-0.697 2.034,-1.267 z"
             style="fill:#ffffff;fill-opacity:1;fill-rule:nonzero;stroke:none"
             id="path178" /></g><path
           d="m 769.862,472.792 h -1.504 v 15.751 h 1.504 z m 0.649,21.181 c 0,-0.191 -0.04,-0.368 -0.119,-0.531 -0.079,-0.164 -0.182,-0.308 -0.309,-0.435 -0.126,-0.127 -0.274,-0.228 -0.443,-0.301 -0.169,-0.074 -0.348,-0.111 -0.538,-0.111 -0.19,0 -0.37,0.037 -0.538,0.111 -0.169,0.073 -0.317,0.174 -0.443,0.301 -0.127,0.127 -0.227,0.271 -0.301,0.435 -0.074,0.163 -0.111,0.34 -0.111,0.531 0,0.189 0.037,0.372 0.111,0.546 0.074,0.173 0.174,0.324 0.301,0.451 0.126,0.127 0.274,0.226 0.443,0.301 0.168,0.073 0.348,0.11 0.538,0.11 0.19,0 0.369,-0.037 0.538,-0.11 0.169,-0.075 0.317,-0.174 0.443,-0.301 0.127,-0.127 0.23,-0.278 0.309,-0.451 0.079,-0.174 0.119,-0.357 0.119,-0.546"
           style="fill:#ffffff;fill-opacity:1;fill-rule:nonzero;stroke:none"
           id="path180" /><g
           id="g182"
           transform="translate(784.4404,473.7734)"><path
             d="m 0,0 c 0.939,0 1.76,0.161 2.461,0.482 0.702,0.323 1.288,0.785 1.758,1.386 0.469,0.602 0.82,1.327 1.052,2.177 0.232,0.849 0.349,1.802 0.349,2.856 0,1.045 -0.117,1.995 -0.349,2.85 -0.232,0.855 -0.583,1.586 -1.052,2.192 -0.47,0.608 -1.056,1.075 -1.758,1.402 -0.701,0.327 -1.522,0.49 -2.461,0.49 -0.939,0 -1.76,-0.163 -2.461,-0.49 -0.703,-0.327 -1.288,-0.794 -1.758,-1.402 -0.469,-0.606 -0.823,-1.337 -1.06,-2.192 -0.238,-0.855 -0.356,-1.805 -0.356,-2.85 0,-1.054 0.118,-2.007 0.356,-2.856 0.237,-0.85 0.591,-1.575 1.06,-2.177 0.47,-0.601 1.055,-1.063 1.758,-1.386 C -1.76,0.161 -0.939,0 0,0 m 0,15.022 c 1.129,0 2.14,-0.192 3.031,-0.578 C 3.923,14.06 4.675,13.514 5.287,12.807 5.899,12.1 6.366,11.247 6.688,10.25 7.01,9.253 7.171,8.137 7.171,6.901 7.171,5.667 7.01,4.554 6.688,3.562 6.366,2.569 5.899,1.72 5.287,1.013 4.675,0.306 3.923,-0.237 3.031,-0.617 2.14,-0.997 1.129,-1.187 0,-1.187 c -1.129,0 -2.14,0.19 -3.031,0.57 -0.892,0.38 -1.647,0.923 -2.264,1.63 -0.618,0.707 -1.087,1.556 -1.409,2.549 -0.322,0.992 -0.483,2.105 -0.483,3.339 0,1.236 0.161,2.352 0.483,3.349 0.322,0.997 0.791,1.85 1.409,2.557 0.617,0.707 1.372,1.253 2.264,1.637 0.891,0.386 1.902,0.578 3.031,0.578"
             style="fill:#ffffff;fill-opacity:1;fill-rule:nonzero;stroke:none"
             id="path184" /></g><g
           id="g186"
           transform="translate(800.2861,485.7881)"><path
             d="M 0,0 C 0.728,0.907 1.57,1.636 2.525,2.185 3.48,2.733 4.543,3.008 5.714,3.008 6.58,3.008 7.342,2.87 8.002,2.597 8.662,2.321 9.208,1.926 9.64,1.409 10.073,0.892 10.4,0.27 10.622,-0.459 c 0.221,-0.728 0.332,-1.551 0.332,-2.47 V -12.996 H 9.435 v 10.067 c 0,1.478 -0.338,2.636 -1.014,3.475 C 7.746,1.386 6.717,1.805 5.334,1.805 4.311,1.805 3.353,1.544 2.461,1.021 1.57,0.499 0.776,-0.227 0.079,-1.155 V -12.996 H -1.44 V 2.755 h 0.838 c 0.264,0 0.417,-0.133 0.459,-0.397 z"
             style="fill:#ffffff;fill-opacity:1;fill-rule:nonzero;stroke:none"
             id="path188" /></g><g
           id="g190"
           transform="translate(841.5547,485.1553)"><path
             d="M 0,0 C -0.602,0.907 -1.27,1.546 -2.003,1.915 -2.736,2.284 -3.572,2.47 -4.512,2.47 -5.44,2.47 -6.253,2.301 -6.949,1.963 -7.646,1.625 -8.229,1.147 -8.698,0.53 c -0.47,-0.617 -0.823,-1.356 -1.061,-2.217 -0.238,-0.859 -0.356,-1.806 -0.356,-2.84 0,-2.343 0.429,-4.067 1.29,-5.169 0.86,-1.103 2.102,-1.655 3.727,-1.655 1.035,0 1.979,0.27 2.834,0.808 0.855,0.538 1.61,1.293 2.264,2.264 z M 1.504,10.669 V -12.363 H 0.681 c -0.275,0 -0.433,0.136 -0.475,0.411 l -0.159,2.485 c -0.696,-0.949 -1.509,-1.704 -2.438,-2.263 -0.928,-0.56 -1.973,-0.839 -3.133,-0.839 -1.943,0 -3.452,0.67 -4.528,2.01 -1.077,1.34 -1.615,3.351 -1.615,6.032 0,1.15 0.15,2.223 0.451,3.221 0.301,0.997 0.741,1.863 1.322,2.596 0.581,0.733 1.295,1.312 2.145,1.733 0.85,0.422 1.828,0.633 2.937,0.633 1.065,0 1.989,-0.195 2.77,-0.585 C -1.262,2.681 -0.581,2.1 0,1.329 v 9.34 z"
             style="fill:#ffffff;fill-opacity:1;fill-rule:nonzero;stroke:none"
             id="path192" /></g><g
           id="g194"
           transform="translate(862.2754,482.2578)"><path
             d="m 0,0 c 0,0.845 -0.119,1.602 -0.356,2.272 -0.238,0.67 -0.573,1.237 -1.005,1.702 -0.433,0.463 -0.948,0.82 -1.544,1.068 -0.596,0.248 -1.253,0.372 -1.971,0.372 -0.812,0 -1.541,-0.127 -2.185,-0.38 C -7.704,4.781 -8.261,4.417 -8.73,3.942 -9.2,3.467 -9.577,2.897 -9.862,2.232 -10.147,1.567 -10.337,0.823 -10.432,0 Z m -10.511,-0.965 v -0.301 c 0,-1.182 0.137,-2.221 0.411,-3.119 0.275,-0.896 0.665,-1.648 1.172,-2.256 0.506,-0.606 1.118,-1.062 1.836,-1.369 0.718,-0.305 1.52,-0.459 2.406,-0.459 0.791,0 1.478,0.087 2.058,0.262 0.58,0.174 1.068,0.369 1.464,0.585 0.396,0.217 0.71,0.412 0.942,0.586 0.232,0.175 0.401,0.262 0.507,0.262 0.137,0 0.242,-0.054 0.317,-0.159 L 1.013,-7.439 C 0.76,-7.756 0.425,-8.052 0.008,-8.326 -0.409,-8.601 -0.874,-8.835 -1.386,-9.03 c -0.511,-0.196 -1.06,-0.352 -1.645,-0.467 -0.586,-0.116 -1.175,-0.175 -1.766,-0.175 -1.076,0 -2.057,0.188 -2.944,0.563 -0.887,0.374 -1.647,0.92 -2.28,1.637 -0.632,0.718 -1.121,1.597 -1.463,2.636 -0.344,1.04 -0.515,2.23 -0.515,3.57 0,1.129 0.16,2.171 0.482,3.126 0.323,0.955 0.787,1.779 1.394,2.47 0.606,0.691 1.351,1.232 2.231,1.622 0.881,0.391 1.881,0.586 3,0.586 0.887,0 1.71,-0.153 2.47,-0.459 0.76,-0.307 1.419,-0.752 1.979,-1.338 0.559,-0.586 1,-1.305 1.321,-2.16 C 1.2,1.726 1.361,0.744 1.361,-0.363 1.361,-0.596 1.329,-0.754 1.267,-0.839 1.203,-0.923 1.098,-0.965 0.949,-0.965 Z"
             style="fill:#ffffff;fill-opacity:1;fill-rule:nonzero;stroke:none"
             id="path196" /></g><path
           d="m 872.374,472.792 h -1.52 v 23.032 h 1.52 z"
           style="fill:#ffffff;fill-opacity:1;fill-rule:nonzero;stroke:none"
           id="path198" /><path
           d="m 882.363,472.792 h -1.504 v 15.751 h 1.504 z m 0.649,21.181 c 0,-0.191 -0.039,-0.368 -0.118,-0.531 -0.08,-0.164 -0.183,-0.308 -0.309,-0.435 -0.127,-0.127 -0.275,-0.228 -0.443,-0.301 -0.169,-0.074 -0.349,-0.111 -0.538,-0.111 -0.191,0 -0.371,0.037 -0.54,0.111 -0.168,0.073 -0.316,0.174 -0.442,0.301 -0.127,0.127 -0.227,0.271 -0.301,0.435 -0.074,0.163 -0.111,0.34 -0.111,0.531 0,0.189 0.037,0.372 0.111,0.546 0.074,0.173 0.174,0.324 0.301,0.451 0.126,0.127 0.274,0.226 0.442,0.301 0.169,0.073 0.349,0.11 0.54,0.11 0.189,0 0.369,-0.037 0.538,-0.11 0.168,-0.075 0.316,-0.174 0.443,-0.301 0.126,-0.127 0.229,-0.278 0.309,-0.451 0.079,-0.174 0.118,-0.357 0.118,-0.546"
           style="fill:#ffffff;fill-opacity:1;fill-rule:nonzero;stroke:none"
           id="path200" /><g
           id="g202"
           transform="translate(903.3535,488.543)"><path
             d="M 0,0 -6.648,-15.751 H -7.979 L -14.627,0 h 1.188 c 0.147,0 0.268,-0.04 0.364,-0.119 0.095,-0.079 0.158,-0.166 0.189,-0.261 l 5.208,-12.427 c 0.158,-0.464 0.285,-0.923 0.38,-1.377 0.096,0.454 0.228,0.913 0.397,1.377 l 5.223,12.427 c 0.053,0.115 0.124,0.208 0.214,0.276 C -1.375,-0.035 -1.267,0 -1.14,0 Z"
             style="fill:#ffffff;fill-opacity:1;fill-rule:nonzero;stroke:none"
             id="path204" /></g><g
           id="g206"
           transform="translate(920.2275,482.2578)"><path
             d="m 0,0 c 0,0.845 -0.119,1.602 -0.356,2.272 -0.238,0.67 -0.573,1.237 -1.005,1.702 -0.433,0.463 -0.948,0.82 -1.544,1.068 -0.596,0.248 -1.253,0.372 -1.971,0.372 -0.812,0 -1.541,-0.127 -2.185,-0.38 C -7.704,4.781 -8.261,4.417 -8.73,3.942 -9.2,3.467 -9.577,2.897 -9.862,2.232 -10.147,1.567 -10.337,0.823 -10.432,0 Z m -10.511,-0.965 v -0.301 c 0,-1.182 0.137,-2.221 0.411,-3.119 0.275,-0.896 0.665,-1.648 1.172,-2.256 0.506,-0.606 1.118,-1.062 1.836,-1.369 0.718,-0.305 1.52,-0.459 2.406,-0.459 0.791,0 1.478,0.087 2.058,0.262 0.58,0.174 1.068,0.369 1.464,0.585 0.396,0.217 0.71,0.412 0.942,0.586 0.232,0.175 0.401,0.262 0.507,0.262 0.137,0 0.242,-0.054 0.317,-0.159 L 1.013,-7.439 C 0.76,-7.756 0.425,-8.052 0.008,-8.326 -0.409,-8.601 -0.874,-8.835 -1.386,-9.03 c -0.511,-0.196 -1.06,-0.352 -1.645,-0.467 -0.586,-0.116 -1.175,-0.175 -1.766,-0.175 -1.076,0 -2.057,0.188 -2.944,0.563 -0.887,0.374 -1.647,0.92 -2.28,1.637 -0.632,0.718 -1.121,1.597 -1.463,2.636 -0.344,1.04 -0.515,2.23 -0.515,3.57 0,1.129 0.16,2.171 0.482,3.126 0.323,0.955 0.787,1.779 1.394,2.47 0.606,0.691 1.351,1.232 2.231,1.622 0.881,0.391 1.881,0.586 3,0.586 0.887,0 1.71,-0.153 2.47,-0.459 0.76,-0.307 1.419,-0.752 1.979,-1.338 0.559,-0.586 1,-1.305 1.321,-2.16 C 1.2,1.726 1.361,0.744 1.361,-0.363 1.361,-0.596 1.329,-0.754 1.267,-0.839 1.203,-0.923 1.098,-0.965 0.949,-0.965 Z"
             style="fill:#ffffff;fill-opacity:1;fill-rule:nonzero;stroke:none"
             id="path208" /></g><g
           id="g210"
           transform="translate(930.1055,484.7432)"><path
             d="m 0,0 c 0.243,0.644 0.521,1.217 0.831,1.718 0.312,0.501 0.671,0.926 1.077,1.274 0.406,0.349 0.86,0.614 1.362,0.8 0.501,0.185 1.057,0.276 1.669,0.276 0.328,0 0.65,-0.029 0.966,-0.087 C 6.222,3.924 6.501,3.82 6.744,3.673 L 6.617,2.628 C 6.564,2.459 6.464,2.375 6.316,2.375 6.189,2.375 5.997,2.412 5.739,2.485 5.48,2.56 5.14,2.597 4.718,2.597 4.105,2.597 3.564,2.504 3.095,2.319 2.626,2.135 2.203,1.857 1.829,1.488 1.454,1.119 1.127,0.662 0.848,0.119 0.567,-0.425 0.312,-1.05 0.08,-1.757 V -11.951 H -1.44 V 3.8 h 0.807 c 0.18,0 0.306,-0.037 0.38,-0.112 0.074,-0.073 0.121,-0.2 0.143,-0.379 z"
             style="fill:#ffffff;fill-opacity:1;fill-rule:nonzero;stroke:none"
             id="path212" /></g><g
           id="g214"
           transform="translate(952.9951,482.2578)"><path
             d="m 0,0 c 0,0.845 -0.119,1.602 -0.356,2.272 -0.238,0.67 -0.573,1.237 -1.005,1.702 -0.433,0.463 -0.948,0.82 -1.544,1.068 -0.596,0.248 -1.253,0.372 -1.971,0.372 -0.812,0 -1.541,-0.127 -2.185,-0.38 C -7.704,4.781 -8.261,4.417 -8.73,3.942 -9.2,3.467 -9.577,2.897 -9.862,2.232 -10.147,1.567 -10.337,0.823 -10.432,0 Z m -10.511,-0.965 v -0.301 c 0,-1.182 0.137,-2.221 0.411,-3.119 0.275,-0.896 0.665,-1.648 1.172,-2.256 0.506,-0.606 1.118,-1.062 1.836,-1.369 0.718,-0.305 1.52,-0.459 2.406,-0.459 0.791,0 1.478,0.087 2.058,0.262 0.58,0.174 1.068,0.369 1.464,0.585 0.396,0.217 0.71,0.412 0.942,0.586 0.232,0.175 0.401,0.262 0.507,0.262 0.137,0 0.242,-0.054 0.317,-0.159 L 1.013,-7.439 C 0.76,-7.756 0.425,-8.052 0.008,-8.326 -0.409,-8.601 -0.874,-8.835 -1.386,-9.03 c -0.511,-0.196 -1.06,-0.352 -1.645,-0.467 -0.586,-0.116 -1.175,-0.175 -1.766,-0.175 -1.076,0 -2.057,0.188 -2.944,0.563 -0.887,0.374 -1.647,0.92 -2.28,1.637 -0.632,0.718 -1.121,1.597 -1.463,2.636 -0.344,1.04 -0.515,2.23 -0.515,3.57 0,1.129 0.16,2.171 0.482,3.126 0.323,0.955 0.787,1.779 1.394,2.47 0.606,0.691 1.351,1.232 2.231,1.622 0.881,0.391 1.881,0.586 3,0.586 0.887,0 1.71,-0.153 2.47,-0.459 0.76,-0.307 1.419,-0.752 1.979,-1.338 0.559,-0.586 1,-1.305 1.321,-2.16 C 1.2,1.726 1.361,0.744 1.361,-0.363 1.361,-0.596 1.329,-0.754 1.267,-0.839 1.203,-0.923 1.098,-0.965 0.949,-0.965 Z"
             style="fill:#ffffff;fill-opacity:1;fill-rule:nonzero;stroke:none"
             id="path216" /></g><g
           id="g218"
           transform="translate(972.1807,485.1553)"><path
             d="M 0,0 C -0.602,0.907 -1.27,1.546 -2.003,1.915 -2.736,2.284 -3.572,2.47 -4.512,2.47 -5.44,2.47 -6.253,2.301 -6.949,1.963 -7.646,1.625 -8.229,1.147 -8.698,0.53 c -0.47,-0.617 -0.823,-1.356 -1.061,-2.217 -0.238,-0.859 -0.356,-1.806 -0.356,-2.84 0,-2.343 0.429,-4.067 1.29,-5.169 0.86,-1.103 2.102,-1.655 3.727,-1.655 1.035,0 1.979,0.27 2.834,0.808 0.855,0.538 1.61,1.293 2.264,2.264 z M 1.504,10.669 V -12.363 H 0.681 c -0.275,0 -0.433,0.136 -0.475,0.411 l -0.159,2.485 c -0.696,-0.949 -1.509,-1.704 -2.438,-2.263 -0.928,-0.56 -1.973,-0.839 -3.133,-0.839 -1.943,0 -3.452,0.67 -4.528,2.01 -1.077,1.34 -1.615,3.351 -1.615,6.032 0,1.15 0.15,2.223 0.451,3.221 0.301,0.997 0.741,1.863 1.322,2.596 0.581,0.733 1.295,1.312 2.145,1.733 0.85,0.422 1.828,0.633 2.937,0.633 1.065,0 1.989,-0.195 2.77,-0.585 C -1.262,2.681 -0.581,2.1 0,1.329 v 9.34 z"
             style="fill:#ffffff;fill-opacity:1;fill-rule:nonzero;stroke:none"
             id="path220" /></g><g
           id="g222"
           transform="translate(993.0605,474.0107)"><path
             d="m 0,0 c 0,0.2 0.036,0.391 0.11,0.57 0.075,0.179 0.177,0.335 0.309,0.467 0.132,0.132 0.285,0.237 0.459,0.317 0.175,0.079 0.367,0.119 0.578,0.119 0.2,0 0.391,-0.04 0.569,-0.119 C 2.205,1.274 2.36,1.169 2.493,1.037 2.625,0.905 2.73,0.749 2.81,0.57 2.889,0.391 2.928,0.2 2.928,0 2.928,-0.211 2.889,-0.403 2.81,-0.578 2.73,-0.752 2.625,-0.905 2.493,-1.037 2.36,-1.169 2.205,-1.271 2.025,-1.346 1.847,-1.419 1.656,-1.456 1.456,-1.456 c -0.412,0 -0.758,0.14 -1.037,0.419 C 0.14,-0.757 0,-0.411 0,0"
             style="fill:#ffffff;fill-opacity:1;fill-rule:nonzero;stroke:none"
             id="path224" /></g><g
           id="g226"
           transform="translate(1003.4287,474.0107)"><path
             d="m 0,0 c 0,0.2 0.036,0.391 0.11,0.57 0.075,0.179 0.177,0.335 0.309,0.467 0.132,0.132 0.285,0.237 0.459,0.317 0.175,0.079 0.367,0.119 0.578,0.119 0.2,0 0.391,-0.04 0.569,-0.119 C 2.205,1.274 2.36,1.169 2.493,1.037 2.625,0.905 2.73,0.749 2.81,0.57 2.889,0.391 2.928,0.2 2.928,0 2.928,-0.211 2.889,-0.403 2.81,-0.578 2.73,-0.752 2.625,-0.905 2.493,-1.037 2.36,-1.169 2.205,-1.271 2.025,-1.346 1.847,-1.419 1.656,-1.456 1.456,-1.456 c -0.412,0 -0.758,0.14 -1.037,0.419 C 0.14,-0.757 0,-0.411 0,0"
             style="fill:#ffffff;fill-opacity:1;fill-rule:nonzero;stroke:none"
             id="path228" /></g><g
           id="g230"
           transform="translate(1027.252,485.8828)"><path
             d="M 0,0 C 0.728,0.887 1.559,1.594 2.493,2.122 3.427,2.649 4.474,2.913 5.635,2.913 6.5,2.913 7.263,2.775 7.923,2.502 8.582,2.227 9.128,1.831 9.561,1.314 9.993,0.797 10.32,0.175 10.542,-0.554 c 0.222,-0.728 0.333,-1.55 0.333,-2.469 V -13.091 H 9.354 v 10.068 c 0,1.477 -0.336,2.635 -1.012,3.474 C 7.666,1.291 6.638,1.71 5.255,1.71 4.231,1.71 3.273,1.449 2.382,0.927 1.49,0.404 0.696,-0.321 0,-1.25 V -13.091 H -1.521 V 9.941 H 0 Z"
             style="fill:#ffffff;fill-opacity:1;fill-rule:nonzero;stroke:none"
             id="path232" /></g><g
           id="g234"
           transform="translate(1052.3574,473.7734)"><path
             d="m 0,0 c 0.939,0 1.76,0.161 2.462,0.482 0.701,0.323 1.287,0.785 1.757,1.386 0.469,0.602 0.82,1.327 1.052,2.177 0.232,0.849 0.348,1.802 0.348,2.856 0,1.045 -0.116,1.995 -0.348,2.85 -0.232,0.855 -0.583,1.586 -1.052,2.192 -0.47,0.608 -1.056,1.075 -1.757,1.402 -0.702,0.327 -1.523,0.49 -2.462,0.49 -0.939,0 -1.76,-0.163 -2.462,-0.49 -0.701,-0.327 -1.287,-0.794 -1.757,-1.402 -0.469,-0.606 -0.823,-1.337 -1.06,-2.192 -0.238,-0.855 -0.357,-1.805 -0.357,-2.85 0,-1.054 0.119,-2.007 0.357,-2.856 0.237,-0.85 0.591,-1.575 1.06,-2.177 0.47,-0.601 1.056,-1.063 1.757,-1.386 C -1.76,0.161 -0.939,0 0,0 m 0,15.022 c 1.129,0 2.14,-0.192 3.031,-0.578 C 3.923,14.06 4.675,13.514 5.287,12.807 5.899,12.1 6.366,11.247 6.688,10.25 7.01,9.253 7.171,8.137 7.171,6.901 7.171,5.667 7.01,4.554 6.688,3.562 6.366,2.569 5.899,1.72 5.287,1.013 4.675,0.306 3.923,-0.237 3.031,-0.617 2.14,-0.997 1.129,-1.187 0,-1.187 c -1.129,0 -2.14,0.19 -3.031,0.57 -0.892,0.38 -1.647,0.923 -2.264,1.63 -0.617,0.707 -1.087,1.556 -1.409,2.549 -0.322,0.992 -0.483,2.105 -0.483,3.339 0,1.236 0.161,2.352 0.483,3.349 0.322,0.997 0.792,1.85 1.409,2.557 0.617,0.707 1.372,1.253 2.264,1.637 0.891,0.386 1.902,0.578 3.031,0.578"
             style="fill:#ffffff;fill-opacity:1;fill-rule:nonzero;stroke:none"
             id="path236" /></g><g
           id="g238"
           transform="translate(1068.2832,476.2275)"><path
             d="m 0,0 c 0.306,-0.454 0.625,-0.837 0.957,-1.148 0.333,-0.312 0.684,-0.565 1.053,-0.76 0.369,-0.196 0.762,-0.335 1.179,-0.419 0.417,-0.085 0.858,-0.127 1.322,-0.127 0.928,0 1.741,0.169 2.438,0.507 0.697,0.337 1.28,0.815 1.749,1.432 0.47,0.618 0.823,1.356 1.061,2.216 0.237,0.861 0.356,1.808 0.356,2.842 0,2.343 -0.433,4.065 -1.299,5.168 -0.865,1.102 -2.105,1.654 -3.719,1.654 -1.045,0 -1.99,-0.268 -2.833,-0.807 C 1.419,10.02 0.664,9.271 0,8.311 Z m -0.063,9.481 c 0.696,0.951 1.511,1.705 2.445,2.264 0.933,0.56 1.981,0.839 3.142,0.839 1.931,0 3.438,-0.67 4.52,-2.01 1.081,-1.341 1.622,-3.351 1.622,-6.031 0,-1.15 -0.15,-2.225 -0.451,-3.222 C 10.914,0.324 10.471,-0.541 9.886,-1.274 9.3,-2.009 8.582,-2.586 7.732,-3.008 6.883,-3.431 5.904,-3.642 4.796,-3.642 3.729,-3.642 2.807,-3.446 2.025,-3.056 1.245,-2.665 0.569,-2.09 0,-1.33 v -7.678 h -1.521 v 21.323 h 0.84 c 0.264,0 0.416,-0.132 0.459,-0.396 z"
             style="fill:#ffffff;fill-opacity:1;fill-rule:nonzero;stroke:none"
             id="path240" /></g><g
           id="g242"
           transform="translate(1098.248,482.2578)"><path
             d="m 0,0 c 0,0.845 -0.119,1.602 -0.356,2.272 -0.238,0.67 -0.573,1.237 -1.005,1.702 -0.433,0.463 -0.948,0.82 -1.544,1.068 -0.596,0.248 -1.253,0.372 -1.971,0.372 -0.812,0 -1.541,-0.127 -2.185,-0.38 C -7.704,4.781 -8.261,4.417 -8.73,3.942 -9.2,3.467 -9.577,2.897 -9.862,2.232 -10.147,1.567 -10.337,0.823 -10.432,0 Z m -10.511,-0.965 v -0.301 c 0,-1.182 0.137,-2.221 0.411,-3.119 0.275,-0.896 0.665,-1.648 1.172,-2.256 0.506,-0.606 1.118,-1.062 1.836,-1.369 0.718,-0.305 1.52,-0.459 2.406,-0.459 0.791,0 1.478,0.087 2.058,0.262 0.58,0.174 1.068,0.369 1.464,0.585 0.396,0.217 0.71,0.412 0.942,0.586 0.232,0.175 0.401,0.262 0.507,0.262 0.137,0 0.242,-0.054 0.317,-0.159 L 1.013,-7.439 C 0.76,-7.756 0.425,-8.052 0.008,-8.326 -0.409,-8.601 -0.874,-8.835 -1.386,-9.03 c -0.511,-0.196 -1.06,-0.352 -1.645,-0.467 -0.586,-0.116 -1.175,-0.175 -1.766,-0.175 -1.076,0 -2.057,0.188 -2.944,0.563 -0.887,0.374 -1.647,0.92 -2.28,1.637 -0.632,0.718 -1.121,1.597 -1.463,2.636 -0.344,1.04 -0.515,2.23 -0.515,3.57 0,1.129 0.16,2.171 0.482,3.126 0.323,0.955 0.787,1.779 1.394,2.47 0.606,0.691 1.351,1.232 2.231,1.622 0.881,0.391 1.881,0.586 3,0.586 0.887,0 1.71,-0.153 2.47,-0.459 0.76,-0.307 1.419,-0.752 1.979,-1.338 0.559,-0.586 1,-1.305 1.321,-2.16 C 1.2,1.726 1.361,0.744 1.361,-0.363 1.361,-0.596 1.329,-0.754 1.267,-0.839 1.203,-0.923 1.098,-0.965 0.949,-0.965 Z"
             style="fill:#ffffff;fill-opacity:1;fill-rule:nonzero;stroke:none"
             id="path244" /></g><g
           id="g246"
           transform="translate(1119.6973,484.7432)"><path
             d="m 0,0 c 0.243,0.644 0.521,1.217 0.831,1.718 0.312,0.501 0.671,0.926 1.077,1.274 0.406,0.349 0.86,0.614 1.362,0.8 0.501,0.185 1.057,0.276 1.669,0.276 0.328,0 0.65,-0.029 0.966,-0.087 C 6.222,3.924 6.501,3.82 6.744,3.673 L 6.617,2.628 C 6.564,2.459 6.464,2.375 6.316,2.375 6.189,2.375 5.997,2.412 5.739,2.485 5.48,2.56 5.14,2.597 4.718,2.597 4.105,2.597 3.564,2.504 3.095,2.319 2.626,2.135 2.203,1.857 1.829,1.488 1.454,1.119 1.127,0.662 0.848,0.119 0.567,-0.425 0.312,-1.05 0.08,-1.757 V -11.951 H -1.44 V 3.8 h 0.807 c 0.18,0 0.306,-0.037 0.38,-0.112 0.074,-0.073 0.121,-0.2 0.143,-0.379 z"
             style="fill:#ffffff;fill-opacity:1;fill-rule:nonzero;stroke:none"
             id="path248" /></g><g
           id="g250"
           transform="translate(1142.5869,482.2578)"><path
             d="m 0,0 c 0,0.845 -0.119,1.602 -0.356,2.272 -0.238,0.67 -0.573,1.237 -1.005,1.702 -0.433,0.463 -0.948,0.82 -1.544,1.068 -0.596,0.248 -1.253,0.372 -1.971,0.372 -0.812,0 -1.541,-0.127 -2.185,-0.38 C -7.704,4.781 -8.261,4.417 -8.73,3.942 -9.2,3.467 -9.577,2.897 -9.862,2.232 -10.147,1.567 -10.337,0.823 -10.432,0 Z m -10.511,-0.965 v -0.301 c 0,-1.182 0.137,-2.221 0.411,-3.119 0.275,-0.896 0.665,-1.648 1.172,-2.256 0.506,-0.606 1.118,-1.062 1.836,-1.369 0.718,-0.305 1.52,-0.459 2.406,-0.459 0.791,0 1.478,0.087 2.058,0.262 0.58,0.174 1.068,0.369 1.464,0.585 0.396,0.217 0.71,0.412 0.942,0.586 0.232,0.175 0.401,0.262 0.507,0.262 0.137,0 0.242,-0.054 0.317,-0.159 L 1.013,-7.439 C 0.76,-7.756 0.425,-8.052 0.008,-8.326 -0.409,-8.601 -0.874,-8.835 -1.386,-9.03 c -0.511,-0.196 -1.06,-0.352 -1.645,-0.467 -0.586,-0.116 -1.175,-0.175 -1.766,-0.175 -1.076,0 -2.057,0.188 -2.944,0.563 -0.887,0.374 -1.647,0.92 -2.28,1.637 -0.632,0.718 -1.121,1.597 -1.463,2.636 -0.344,1.04 -0.515,2.23 -0.515,3.57 0,1.129 0.16,2.171 0.482,3.126 0.323,0.955 0.787,1.779 1.394,2.47 0.606,0.691 1.351,1.232 2.231,1.622 0.881,0.391 1.881,0.586 3,0.586 0.887,0 1.71,-0.153 2.47,-0.459 0.76,-0.307 1.419,-0.752 1.979,-1.338 0.559,-0.586 1,-1.305 1.321,-2.16 C 1.2,1.726 1.361,0.744 1.361,-0.363 1.361,-0.596 1.329,-0.754 1.267,-0.839 1.203,-0.923 1.098,-0.965 0.949,-0.965 Z"
             style="fill:#ffffff;fill-opacity:1;fill-rule:nonzero;stroke:none"
             id="path252" /></g><g
           id="g254"
           transform="translate(1159.6836,486.5957)"><path
             d="m 0,0 c -0.084,-0.148 -0.206,-0.222 -0.364,-0.222 -0.116,0 -0.264,0.066 -0.444,0.199 -0.178,0.131 -0.419,0.279 -0.719,0.442 -0.301,0.164 -0.673,0.311 -1.117,0.443 -0.443,0.132 -0.981,0.199 -1.614,0.199 -0.57,0 -1.09,-0.082 -1.559,-0.246 -0.47,-0.164 -0.87,-0.382 -1.204,-0.657 -0.332,-0.274 -0.587,-0.594 -0.767,-0.958 -0.18,-0.364 -0.27,-0.746 -0.27,-1.147 0,-0.496 0.127,-0.907 0.38,-1.235 0.254,-0.327 0.583,-0.607 0.991,-0.839 0.405,-0.232 0.873,-0.433 1.4,-0.601 0.527,-0.169 1.063,-0.338 1.606,-0.507 0.544,-0.169 1.079,-0.356 1.608,-0.562 0.527,-0.205 0.994,-0.461 1.4,-0.768 0.406,-0.306 0.736,-0.681 0.989,-1.124 0.254,-0.442 0.38,-0.981 0.38,-1.614 0,-0.687 -0.121,-1.324 -0.363,-1.915 -0.243,-0.592 -0.6,-1.104 -1.069,-1.536 -0.47,-0.433 -1.047,-0.776 -1.734,-1.029 -0.685,-0.254 -1.471,-0.38 -2.358,-0.38 -1.109,0 -2.064,0.177 -2.865,0.531 -0.802,0.353 -1.52,0.814 -2.153,1.384 l 0.348,0.538 c 0.053,0.085 0.113,0.148 0.183,0.191 0.068,0.042 0.16,0.063 0.276,0.063 0.138,0 0.304,-0.085 0.499,-0.254 0.195,-0.168 0.456,-0.35 0.783,-0.545 0.327,-0.196 0.732,-0.378 1.211,-0.546 0.481,-0.169 1.074,-0.254 1.781,-0.254 0.665,0 1.251,0.093 1.757,0.277 0.507,0.185 0.929,0.436 1.267,0.752 0.338,0.316 0.594,0.689 0.767,1.116 0.175,0.427 0.262,0.878 0.262,1.354 0,0.527 -0.127,0.965 -0.38,1.313 -0.254,0.349 -0.586,0.644 -0.998,0.887 -0.411,0.242 -0.878,0.448 -1.4,0.617 -0.523,0.169 -1.059,0.338 -1.607,0.507 -0.549,0.168 -1.085,0.354 -1.607,0.554 -0.523,0.2 -0.989,0.454 -1.4,0.76 -0.413,0.305 -0.745,0.677 -0.998,1.116 -0.253,0.437 -0.38,0.983 -0.38,1.638 0,0.559 0.122,1.097 0.364,1.615 0.243,0.516 0.589,0.97 1.037,1.361 0.448,0.391 0.994,0.702 1.639,0.934 0.643,0.232 1.366,0.348 2.168,0.348 0.961,0 1.813,-0.137 2.556,-0.411 0.744,-0.275 1.422,-0.697 2.034,-1.267 z"
             style="fill:#ffffff;fill-opacity:1;fill-rule:nonzero;stroke:none"
             id="path256" /></g><g
           id="g258"
           transform="translate(1171.7607,472.5391)"><path
             d="M 0,0 C -1.065,0 -1.896,0.295 -2.493,0.886 -3.089,1.477 -3.387,2.39 -3.387,3.625 V 14.389 H -5.65 c -0.117,0 -0.212,0.032 -0.286,0.095 -0.074,0.063 -0.111,0.153 -0.111,0.269 v 0.586 l 2.692,0.189 0.379,5.636 c 0.022,0.095 0.064,0.18 0.127,0.253 0.064,0.074 0.153,0.111 0.269,0.111 h 0.713 V 15.513 H 3.104 V 14.389 H -1.867 V 3.704 c 0,-0.433 0.055,-0.805 0.166,-1.116 0.11,-0.312 0.264,-0.567 0.459,-0.768 0.195,-0.201 0.425,-0.348 0.688,-0.443 0.264,-0.095 0.549,-0.143 0.855,-0.143 0.38,0 0.707,0.056 0.981,0.166 0.275,0.112 0.512,0.233 0.713,0.365 0.2,0.131 0.364,0.253 0.49,0.364 0.127,0.11 0.228,0.166 0.301,0.166 0.085,0 0.169,-0.053 0.254,-0.158 L 3.451,1.472 C 3.05,1.028 2.541,0.673 1.924,0.403 1.307,0.134 0.665,0 0,0"
             style="fill:#ffffff;fill-opacity:1;fill-rule:nonzero;stroke:none"
             id="path260" /></g><g
           id="g262"
           transform="translate(1187.4639,473.7734)"><path
             d="m 0,0 c 0.939,0 1.76,0.161 2.462,0.482 0.701,0.323 1.287,0.785 1.757,1.386 0.469,0.602 0.82,1.327 1.052,2.177 0.232,0.849 0.348,1.802 0.348,2.856 0,1.045 -0.116,1.995 -0.348,2.85 -0.232,0.855 -0.583,1.586 -1.052,2.192 -0.47,0.608 -1.056,1.075 -1.757,1.402 -0.702,0.327 -1.523,0.49 -2.462,0.49 -0.939,0 -1.76,-0.163 -2.462,-0.49 -0.701,-0.327 -1.287,-0.794 -1.757,-1.402 -0.469,-0.606 -0.823,-1.337 -1.06,-2.192 -0.238,-0.855 -0.357,-1.805 -0.357,-2.85 0,-1.054 0.119,-2.007 0.357,-2.856 0.237,-0.85 0.591,-1.575 1.06,-2.177 0.47,-0.601 1.056,-1.063 1.757,-1.386 C -1.76,0.161 -0.939,0 0,0 m 0,15.022 c 1.129,0 2.14,-0.192 3.031,-0.578 C 3.923,14.06 4.675,13.514 5.287,12.807 5.899,12.1 6.366,11.247 6.688,10.25 7.01,9.253 7.171,8.137 7.171,6.901 7.171,5.667 7.01,4.554 6.688,3.562 6.366,2.569 5.899,1.72 5.287,1.013 4.675,0.306 3.923,-0.237 3.031,-0.617 2.14,-0.997 1.129,-1.187 0,-1.187 c -1.129,0 -2.14,0.19 -3.031,0.57 -0.892,0.38 -1.647,0.923 -2.264,1.63 -0.617,0.707 -1.087,1.556 -1.409,2.549 -0.322,0.992 -0.483,2.105 -0.483,3.339 0,1.236 0.161,2.352 0.483,3.349 0.322,0.997 0.792,1.85 1.409,2.557 0.617,0.707 1.372,1.253 2.264,1.637 0.891,0.386 1.902,0.578 3.031,0.578"
             style="fill:#ffffff;fill-opacity:1;fill-rule:nonzero;stroke:none"
             id="path264" /></g><g
           id="g266"
           transform="translate(1203.3096,484.7432)"><path
             d="m 0,0 c 0.243,0.644 0.521,1.217 0.831,1.718 0.312,0.501 0.671,0.926 1.077,1.274 0.406,0.349 0.86,0.614 1.362,0.8 0.501,0.185 1.057,0.276 1.669,0.276 0.328,0 0.65,-0.029 0.966,-0.087 C 6.222,3.924 6.501,3.82 6.744,3.673 L 6.617,2.628 C 6.564,2.459 6.464,2.375 6.316,2.375 6.189,2.375 5.997,2.412 5.739,2.485 5.48,2.56 5.14,2.597 4.718,2.597 4.105,2.597 3.564,2.504 3.095,2.319 2.626,2.135 2.203,1.857 1.829,1.488 1.454,1.119 1.127,0.662 0.848,0.119 0.567,-0.425 0.312,-1.05 0.08,-1.757 V -11.951 H -1.44 V 3.8 h 0.807 c 0.18,0 0.306,-0.037 0.38,-0.112 0.074,-0.073 0.121,-0.2 0.143,-0.379 z"
             style="fill:#ffffff;fill-opacity:1;fill-rule:nonzero;stroke:none"
             id="path268" /></g><g
           id="g270"
           transform="translate(1226.1992,482.2578)"><path
             d="m 0,0 c 0,0.845 -0.119,1.602 -0.356,2.272 -0.238,0.67 -0.573,1.237 -1.005,1.702 -0.433,0.463 -0.948,0.82 -1.544,1.068 -0.596,0.248 -1.253,0.372 -1.971,0.372 -0.812,0 -1.541,-0.127 -2.185,-0.38 C -7.704,4.781 -8.261,4.417 -8.73,3.942 -9.2,3.467 -9.577,2.897 -9.862,2.232 -10.147,1.567 -10.337,0.823 -10.432,0 Z m -10.511,-0.965 v -0.301 c 0,-1.182 0.137,-2.221 0.411,-3.119 0.275,-0.896 0.665,-1.648 1.172,-2.256 0.506,-0.606 1.118,-1.062 1.836,-1.369 0.718,-0.305 1.52,-0.459 2.406,-0.459 0.791,0 1.478,0.087 2.058,0.262 0.58,0.174 1.068,0.369 1.464,0.585 0.396,0.217 0.71,0.412 0.942,0.586 0.232,0.175 0.401,0.262 0.507,0.262 0.137,0 0.242,-0.054 0.317,-0.159 L 1.013,-7.439 C 0.76,-7.756 0.425,-8.052 0.008,-8.326 -0.409,-8.601 -0.874,-8.835 -1.386,-9.03 c -0.511,-0.196 -1.06,-0.352 -1.645,-0.467 -0.586,-0.116 -1.175,-0.175 -1.766,-0.175 -1.076,0 -2.057,0.188 -2.944,0.563 -0.887,0.374 -1.647,0.92 -2.28,1.637 -0.632,0.718 -1.121,1.597 -1.463,2.636 -0.344,1.04 -0.515,2.23 -0.515,3.57 0,1.129 0.16,2.171 0.482,3.126 0.323,0.955 0.787,1.779 1.394,2.47 0.606,0.691 1.351,1.232 2.231,1.622 0.881,0.391 1.881,0.586 3,0.586 0.887,0 1.71,-0.153 2.47,-0.459 0.76,-0.307 1.419,-0.752 1.979,-1.338 0.559,-0.586 1,-1.305 1.321,-2.16 C 1.2,1.726 1.361,0.744 1.361,-0.363 1.361,-0.596 1.329,-0.754 1.267,-0.839 1.203,-0.923 1.098,-0.965 0.949,-0.965 Z"
             style="fill:#ffffff;fill-opacity:1;fill-rule:nonzero;stroke:none"
             id="path272" /></g><g
           id="g274"
           transform="translate(1245.3857,485.1553)"><path
             d="M 0,0 C -0.602,0.907 -1.27,1.546 -2.003,1.915 -2.736,2.284 -3.572,2.47 -4.512,2.47 -5.44,2.47 -6.253,2.301 -6.949,1.963 -7.646,1.625 -8.229,1.147 -8.698,0.53 c -0.47,-0.617 -0.823,-1.356 -1.061,-2.217 -0.238,-0.859 -0.356,-1.806 -0.356,-2.84 0,-2.343 0.429,-4.067 1.29,-5.169 0.86,-1.103 2.102,-1.655 3.727,-1.655 1.035,0 1.979,0.27 2.834,0.808 0.855,0.538 1.61,1.293 2.264,2.264 z M 1.504,10.669 V -12.363 H 0.681 c -0.275,0 -0.433,0.136 -0.475,0.411 l -0.159,2.485 c -0.696,-0.949 -1.509,-1.704 -2.438,-2.263 -0.928,-0.56 -1.973,-0.839 -3.133,-0.839 -1.943,0 -3.452,0.67 -4.528,2.01 -1.077,1.34 -1.615,3.351 -1.615,6.032 0,1.15 0.15,2.223 0.451,3.221 0.301,0.997 0.741,1.863 1.322,2.596 0.581,0.733 1.295,1.312 2.145,1.733 0.85,0.422 1.828,0.633 2.937,0.633 1.065,0 1.989,-0.195 2.77,-0.585 C -1.262,2.681 -0.581,2.1 0,1.329 v 9.34 z"
             style="fill:#ffffff;fill-opacity:1;fill-rule:nonzero;stroke:none"
             id="path276" /></g></g></g></g></svg>
